<?xml version="1.0" encoding="UTF-8" ?>
<!DOCTYPE svg PUBLIC "-//W3C//DTD SVG 1.1//EN" "http://www.w3.org/Graphics/SVG/1.1/DTD/svg11.dtd">
<svg width="546pt" height="768pt" viewBox="0 0 546 768" version="1.1" xmlns="http://www.w3.org/2000/svg">
<g id="#49494dff">
<path fill="#49494d" opacity="1.00" d=" M 370.72 23.03 C 371.10 24.71 371.38 26.41 371.69 28.10 C 372.11 29.28 372.53 30.45 372.94 31.64 C 372.39 31.96 371.31 32.58 370.77 32.90 C 371.41 51.28 370.61 69.69 371.15 88.07 C 371.24 90.88 370.65 93.65 370.05 96.38 C 369.33 91.27 370.05 86.16 370.48 81.07 C 370.75 66.72 370.64 52.36 370.60 38.00 C 370.65 33.01 369.81 27.99 370.72 23.03 Z" />
<path fill="#49494d" opacity="1.00" d=" M 173.69 26.32 C 174.16 26.39 175.12 26.54 175.59 26.61 C 175.38 27.34 174.96 28.81 174.74 29.54 C 172.82 36.28 171.27 43.13 169.96 50.02 C 169.80 50.72 169.48 52.12 169.32 52.82 C 168.95 54.54 168.51 56.25 168.07 57.96 C 167.93 58.70 167.67 60.17 167.53 60.91 C 167.39 61.96 167.22 63.00 167.03 64.03 C 166.89 64.72 166.59 66.08 166.45 66.77 C 166.14 68.27 165.79 69.76 165.45 71.26 C 165.24 72.24 164.84 74.19 164.64 75.17 C 164.42 76.44 164.21 77.72 163.99 79.00 C 163.87 79.71 163.61 81.14 163.49 81.86 C 163.29 83.25 163.07 84.64 162.89 86.03 C 162.45 88.13 162.06 90.24 161.64 92.35 C 161.54 92.78 161.33 93.66 161.23 94.09 C 160.87 95.41 160.63 96.75 160.52 98.11 C 160.34 99.44 160.12 100.75 159.93 102.08 C 159.47 104.33 159.09 106.60 158.74 108.88 C 158.57 109.59 158.40 110.30 158.24 111.01 C 157.90 112.26 157.69 113.53 157.60 114.83 C 157.46 116.31 157.24 117.79 157.09 119.27 C 156.63 121.30 156.17 123.32 155.65 125.34 L 154.88 125.30 C 157.74 110.56 159.82 95.66 162.94 80.95 C 164.08 75.65 164.37 70.15 166.14 64.99 C 167.05 60.64 167.37 56.14 168.80 51.90 C 170.15 47.32 170.09 42.37 172.04 37.96 C 172.59 34.08 173.66 30.26 173.69 26.32 Z" />
<path fill="#49494d" opacity="1.00" d=" M 369.48 104.90 C 369.64 106.73 369.76 108.57 369.89 110.42 C 369.88 114.19 369.54 117.95 369.02 121.69 L 368.76 120.52 C 368.01 115.34 368.62 110.03 369.48 104.90 Z" />
<path fill="#49494d" opacity="1.00" d=" M 327.11 215.92 C 325.59 215.04 323.97 214.27 322.91 212.82 C 324.70 213.60 326.45 214.49 328.22 215.32 C 328.84 215.42 330.07 215.61 330.68 215.70 C 330.98 216.04 331.56 216.71 331.86 217.04 C 330.89 216.74 329.92 216.43 328.96 216.12 C 328.50 216.07 327.57 215.97 327.11 215.92 Z" />
<path fill="#49494d" opacity="1.00" d=" M 213.09 345.15 C 215.01 344.79 216.03 346.64 217.12 347.86 C 226.37 359.84 235.46 372.11 246.86 382.16 C 251.64 386.08 256.69 389.95 262.65 391.88 C 262.52 392.73 262.40 393.58 262.30 394.43 C 260.73 394.71 259.39 393.55 258.04 392.97 C 241.56 384.50 230.64 368.97 219.14 355.03 C 217.12 351.78 213.32 349.20 213.09 345.15 Z" />
<path fill="#49494d" opacity="1.00" d=" M 176.81 411.86 C 178.57 412.33 180.53 412.70 181.61 414.34 C 186.22 420.05 190.73 425.92 196.35 430.70 C 201.78 435.27 206.64 440.52 212.55 444.51 C 215.02 446.13 217.19 448.21 218.41 450.96 C 217.03 450.58 215.66 450.21 214.29 449.80 C 200.84 438.22 186.25 427.20 176.81 411.86 Z" />
<path fill="#49494d" opacity="1.00" d=" M 363.85 414.78 C 365.01 412.93 367.05 412.24 369.10 411.87 C 359.14 427.07 344.79 438.57 330.99 450.11 C 329.50 450.39 328.01 450.64 326.53 450.95 C 328.47 448.73 330.46 446.54 332.83 444.77 C 344.20 435.93 354.98 426.19 363.85 414.78 Z" />
</g>
<g id="#2d2d2fff">
<path fill="#2d2d2f" opacity="1.00" d=" M 169.96 50.02 C 171.27 43.13 172.82 36.28 174.74 29.54 C 174.87 31.83 175.06 34.13 174.84 36.42 C 172.50 44.15 174.24 52.16 173.96 60.05 C 174.06 65.25 173.31 70.57 174.87 75.62 C 175.64 80.59 175.04 85.67 175.20 90.68 C 174.76 96.77 175.42 102.84 175.41 108.93 C 176.12 103.41 176.11 97.85 176.22 92.31 C 176.82 94.83 176.66 97.45 176.51 100.02 C 176.39 105.07 176.82 110.11 176.48 115.15 L 176.41 116.34 C 176.17 115.49 175.68 113.77 175.44 112.91 C 174.85 117.02 174.80 121.20 175.49 125.30 C 175.73 124.65 176.20 123.34 176.44 122.69 C 176.79 124.41 177.21 126.13 177.62 127.84 C 177.72 125.90 177.85 123.96 177.88 122.01 C 178.32 125.86 178.05 129.74 178.28 133.60 C 178.53 137.47 179.01 141.33 178.89 145.21 C 177.73 147.16 177.27 149.60 178.63 151.59 C 178.87 151.23 179.35 150.50 179.59 150.14 C 179.92 151.24 180.34 152.32 180.68 153.42 C 182.02 159.18 182.77 165.02 183.66 170.86 C 183.74 174.44 185.93 177.67 185.29 181.31 C 183.69 181.50 183.49 183.40 183.92 184.63 C 184.33 184.20 185.14 183.32 185.55 182.88 L 186.16 182.06 C 186.39 186.05 187.96 189.77 188.52 193.70 C 188.69 195.16 188.87 196.62 189.13 198.08 C 187.84 198.65 187.53 200.34 188.14 201.51 C 188.47 201.37 189.11 201.10 189.43 200.96 C 189.70 201.00 190.23 201.09 190.50 201.13 C 190.64 201.85 190.92 203.29 191.06 204.01 C 187.63 203.20 189.50 208.94 191.45 205.70 C 191.62 206.29 191.94 207.47 192.10 208.06 C 190.67 208.45 190.66 209.06 192.07 209.88 C 192.83 210.56 193.59 211.25 194.33 211.96 L 194.44 212.85 C 194.57 213.94 194.75 215.02 194.97 216.10 C 192.68 216.19 193.99 220.09 195.41 217.76 C 195.47 218.09 195.57 218.75 195.62 219.07 C 195.67 219.83 195.71 220.60 195.74 221.36 C 196.22 221.53 197.18 221.85 197.66 222.01 C 198.09 223.07 198.52 224.14 198.95 225.20 C 199.77 226.51 200.34 226.35 200.68 224.72 C 200.89 224.39 201.31 223.72 201.52 223.39 C 201.99 223.13 202.92 222.61 203.39 222.35 C 204.82 222.10 206.11 221.39 207.09 220.31 C 208.09 219.23 209.41 218.57 210.78 218.07 C 214.88 216.42 218.76 214.06 223.08 213.07 C 223.94 213.18 226.70 214.76 226.29 212.97 C 227.33 212.53 228.38 212.09 229.44 211.67 C 228.60 213.97 232.00 212.96 230.29 211.34 C 230.32 210.91 230.37 210.48 230.43 210.05 L 230.46 209.77 C 231.88 209.68 233.31 209.61 234.73 209.43 C 235.59 209.30 237.31 209.04 238.17 208.91 C 238.63 210.12 241.73 211.02 241.53 209.16 C 241.11 208.99 240.26 208.65 239.84 208.48 C 240.33 208.36 241.30 208.11 241.79 207.99 C 241.72 207.76 241.57 207.32 241.50 207.09 L 241.28 206.70 C 242.69 206.68 244.10 206.72 245.51 206.56 C 247.74 206.32 249.97 206.06 252.21 205.86 C 254.58 207.49 257.50 206.97 260.19 206.93 C 259.40 206.32 258.61 205.72 257.82 205.12 C 259.68 204.76 261.54 204.35 263.40 203.98 C 269.47 204.12 275.56 204.21 281.63 203.94 C 283.46 204.41 285.26 204.98 287.10 205.45 C 286.93 205.73 286.59 206.29 286.41 206.57 C 288.45 207.73 290.79 207.00 292.75 206.06 C 295.24 206.11 297.74 206.27 300.22 206.62 C 308.02 207.61 315.56 210.37 322.91 212.82 C 323.97 214.27 325.59 215.04 327.11 215.92 C 327.75 217.46 328.37 217.52 328.96 216.12 C 329.92 216.43 330.89 216.74 331.86 217.04 C 336.89 218.59 341.29 221.55 345.98 223.85 L 346.83 223.72 C 348.12 221.30 348.95 218.67 350.24 216.24 L 350.49 215.74 C 350.93 217.48 353.61 217.11 353.13 215.21 C 352.64 214.09 351.88 214.01 350.86 214.98 C 351.38 213.90 351.88 212.81 352.36 211.72 C 353.63 214.03 355.36 210.47 353.09 210.16 C 353.26 209.84 353.59 209.20 353.76 208.88 C 356.45 209.67 357.01 205.19 354.13 205.87 C 354.53 204.86 354.95 203.85 355.31 202.82 C 355.63 202.98 356.27 203.29 356.59 203.44 C 357.90 202.64 356.95 200.90 356.11 200.14 C 356.24 199.56 356.49 198.41 356.62 197.84 C 358.19 200.05 359.32 196.19 357.03 196.18 C 357.47 194.74 357.91 193.29 358.29 191.83 C 358.60 192.00 359.23 192.33 359.55 192.49 C 360.83 191.65 359.84 189.94 359.06 189.13 C 359.19 188.58 359.44 187.47 359.57 186.92 C 361.63 188.85 361.95 184.72 360.07 184.19 C 360.45 182.39 360.81 180.60 361.20 178.81 C 361.52 178.96 362.17 179.25 362.49 179.40 C 363.76 178.55 362.73 176.85 361.89 176.12 C 362.12 175.09 362.32 174.06 362.49 173.03 C 362.79 173.12 363.38 173.30 363.67 173.40 C 365.12 172.33 363.98 170.32 363.14 169.23 C 363.56 166.77 363.73 164.26 363.81 161.76 C 363.88 159.54 363.92 157.32 364.13 155.11 C 364.28 156.11 364.45 157.12 364.64 158.12 C 364.80 157.28 365.13 155.58 365.29 154.74 C 365.67 155.32 366.43 156.48 366.81 157.06 C 367.20 154.45 367.04 151.82 366.16 149.33 C 366.17 146.09 366.58 142.87 366.77 139.63 C 366.96 136.53 366.86 133.42 366.64 130.32 C 366.91 130.44 367.45 130.67 367.72 130.78 C 368.29 131.04 369.44 131.56 370.02 131.82 C 370.04 128.41 369.79 125.01 369.02 121.69 C 369.54 117.95 369.88 114.19 369.89 110.42 C 370.52 105.74 369.63 101.04 370.05 96.38 C 370.65 93.65 371.24 90.88 371.15 88.07 C 370.61 69.69 371.41 51.28 370.77 32.90 C 371.31 32.58 372.39 31.96 372.94 31.64 C 372.84 32.44 372.65 34.04 372.55 34.84 L 372.47 35.46 C 371.31 40.56 371.77 45.81 371.68 50.99 C 371.93 64.35 371.00 77.77 372.47 91.08 C 373.39 77.08 372.89 63.03 372.94 49.01 C 372.94 47.06 373.47 45.16 374.03 43.30 C 374.22 44.23 374.42 45.16 374.64 46.09 C 373.56 50.30 375.12 54.55 375.53 58.75 C 376.01 58.58 376.96 58.24 377.44 58.07 C 377.55 58.59 377.78 59.61 377.89 60.13 C 376.92 61.39 376.43 63.26 377.44 64.65 C 377.75 64.44 378.36 64.03 378.67 63.82 C 379.12 65.47 379.59 67.12 379.99 68.78 C 379.52 68.67 378.57 68.44 378.10 68.32 C 378.28 70.08 378.47 71.84 378.68 73.61 C 379.10 73.15 379.93 72.24 380.35 71.78 C 380.49 72.86 380.65 73.94 380.85 75.02 C 379.65 76.21 379.39 78.16 380.34 79.59 C 380.62 79.41 381.16 79.05 381.43 78.87 C 381.59 79.98 381.79 81.08 382.04 82.18 C 381.61 84.14 381.23 86.11 380.87 88.08 C 381.49 87.85 382.72 87.37 383.34 87.13 C 383.53 88.12 383.71 89.10 383.88 90.09 C 382.38 91.55 382.49 93.80 383.33 95.57 C 383.61 95.16 384.17 94.35 384.44 93.95 C 384.58 95.34 384.76 96.74 384.93 98.13 C 384.60 100.15 384.21 102.16 383.87 104.18 C 384.47 103.94 385.66 103.47 386.26 103.23 L 386.84 102.97 C 387.27 105.04 387.51 107.15 387.69 109.25 C 387.84 111.24 388.00 113.23 388.20 115.22 C 386.73 117.33 386.25 120.67 389.32 121.67 C 389.39 122.11 389.47 122.55 389.56 123.00 C 387.79 125.42 388.68 128.36 389.09 131.05 C 389.47 130.47 390.22 129.33 390.60 128.76 C 390.85 130.55 390.94 132.36 391.06 134.17 C 390.18 135.78 389.47 137.71 390.37 139.48 C 390.69 139.33 391.33 139.05 391.65 138.90 C 392.04 139.69 392.40 140.50 392.76 141.31 C 390.59 143.95 391.23 147.30 392.35 150.23 C 392.63 149.55 393.17 148.18 393.44 147.49 C 393.80 149.69 393.97 151.92 393.96 154.15 C 392.99 155.79 392.31 157.88 393.42 159.64 C 393.70 159.47 394.28 159.11 394.57 158.93 C 394.88 159.64 395.22 160.34 395.57 161.05 C 395.64 160.31 395.79 158.82 395.86 158.08 C 396.17 160.59 396.12 163.13 396.24 165.65 C 396.43 169.17 396.88 172.68 396.88 176.22 C 395.80 178.20 395.33 180.54 396.29 182.68 C 396.60 182.28 397.23 181.48 397.54 181.08 C 397.85 182.39 398.23 183.68 398.61 184.97 C 398.70 183.65 398.77 182.32 398.82 181.00 C 399.14 183.86 399.08 186.74 399.23 189.62 C 399.40 193.24 399.88 196.85 399.75 200.49 C 398.87 203.34 398.65 206.32 399.04 209.28 C 399.41 208.65 400.17 207.40 400.54 206.77 C 401.09 209.91 401.48 213.07 401.76 216.24 L 401.83 216.85 C 402.30 221.38 403.20 225.91 402.77 230.48 C 401.30 234.21 401.53 238.20 402.31 242.05 C 402.72 240.89 403.12 239.73 403.51 238.57 C 404.16 242.05 404.61 245.57 404.65 249.12 C 404.66 249.91 404.69 251.51 404.70 252.30 C 404.71 257.07 405.15 261.83 405.99 266.52 C 406.06 269.06 406.07 271.61 405.81 274.14 C 403.95 277.78 404.31 281.94 405.75 285.65 C 406.09 288.96 406.53 292.25 407.00 295.55 C 405.06 311.31 406.37 327.20 406.07 343.02 C 406.05 352.56 405.76 362.09 406.03 371.62 L 407.95 371.50 C 408.29 372.34 408.64 373.18 408.99 374.03 C 405.69 373.72 407.33 379.69 409.71 376.78 C 409.81 377.51 409.92 378.24 410.04 378.98 C 408.35 381.73 409.19 384.99 409.39 387.99 C 409.87 386.52 410.33 385.05 410.77 383.58 C 410.86 384.12 411.03 385.20 411.11 385.74 C 411.09 387.91 411.11 390.07 411.14 392.25 C 409.48 399.71 410.33 407.41 410.39 414.98 C 410.92 413.58 411.45 412.18 411.93 410.77 C 411.97 412.01 412.02 413.27 412.09 414.52 C 412.13 418.25 411.61 421.97 410.63 425.56 C 410.24 423.73 409.84 421.91 409.42 420.09 C 409.20 423.30 408.17 426.83 410.04 429.76 C 409.97 430.20 409.83 431.08 409.75 431.51 L 409.58 432.43 C 407.28 428.99 405.50 435.28 408.98 435.02 C 408.94 435.75 408.84 437.22 408.79 437.96 C 408.48 438.28 407.86 438.94 407.54 439.27 C 406.01 436.82 405.02 440.49 407.10 441.04 C 406.89 442.17 406.70 443.31 406.47 444.45 C 404.90 448.06 404.35 451.91 404.74 455.84 C 404.39 457.33 403.95 458.80 403.58 460.29 C 403.30 460.12 402.74 459.79 402.46 459.63 C 401.51 461.28 401.66 463.51 403.24 464.73 C 403.19 468.66 402.68 472.57 401.83 476.42 C 401.52 475.91 400.89 474.91 400.58 474.40 C 400.18 476.01 400.01 477.69 400.20 479.35 C 400.36 479.51 400.67 479.83 400.82 479.99 C 401.44 482.03 401.31 484.14 400.73 486.18 C 400.38 485.74 399.68 484.87 399.33 484.43 C 398.70 486.21 398.64 488.40 400.20 489.75 C 400.20 491.91 400.33 494.09 400.28 496.27 C 400.10 497.32 399.77 498.33 399.27 499.30 C 398.69 498.21 398.08 497.15 397.47 496.10 C 397.67 499.42 398.24 502.71 398.71 506.00 C 397.70 510.91 396.75 515.86 396.17 520.82 C 395.58 521.52 395.00 522.24 394.43 522.96 C 394.14 522.78 393.55 522.41 393.26 522.23 C 392.38 523.76 393.12 525.48 393.85 526.91 C 393.78 527.37 393.66 528.28 393.60 528.73 C 391.87 529.86 391.38 531.83 390.94 533.70 C 391.38 534.08 392.26 534.83 392.71 535.20 C 392.52 536.11 392.32 537.01 392.11 537.92 C 391.62 537.75 390.63 537.41 390.13 537.25 C 389.59 538.59 390.35 539.93 391.07 541.05 C 390.93 542.41 390.82 543.78 390.61 545.14 C 390.22 544.60 389.43 543.50 389.03 542.96 C 388.68 545.22 387.71 547.78 389.42 549.76 C 389.34 550.06 389.17 550.66 389.08 550.96 C 386.45 550.80 385.89 553.99 388.13 555.10 C 388.06 555.41 387.91 556.04 387.84 556.36 C 387.11 559.96 384.48 562.80 381.89 565.24 C 373.03 572.85 362.47 578.15 351.72 582.53 L 351.00 581.99 C 350.54 581.76 349.62 581.29 349.16 581.06 C 349.43 581.41 349.97 582.11 350.24 582.46 L 350.85 582.91 C 346.97 584.41 343.13 586.08 339.06 587.02 C 338.67 587.27 337.88 587.77 337.48 588.02 C 334.86 588.55 332.35 589.79 329.62 589.57 C 330.82 589.00 332.02 588.44 333.26 587.95 C 335.67 587.50 337.94 586.55 340.14 585.49 C 339.46 585.37 338.09 585.12 337.41 584.99 C 337.52 583.62 337.90 582.17 337.10 580.91 C 338.00 579.58 338.90 578.27 339.88 577.00 C 343.13 576.60 344.24 573.41 345.72 570.99 C 351.46 560.62 356.79 550.01 361.53 539.15 C 361.10 538.79 360.24 538.06 359.81 537.70 C 363.22 529.13 366.33 520.44 368.98 511.60 C 369.47 511.92 370.46 512.55 370.96 512.86 C 372.13 507.64 375.30 502.51 374.05 497.02 L 374.03 496.91 C 376.78 497.63 376.91 493.66 374.80 492.80 C 374.94 492.29 375.23 491.29 375.37 490.79 C 377.48 492.71 377.83 488.93 376.13 488.08 C 376.20 487.83 376.34 487.33 376.41 487.08 C 377.00 486.92 378.20 486.59 378.79 486.43 C 379.41 480.29 383.30 474.35 381.15 468.16 C 381.82 468.92 382.50 469.67 383.20 470.43 C 383.07 468.35 382.95 466.29 382.76 464.24 C 383.22 464.12 384.15 463.88 384.61 463.76 C 385.95 455.65 388.32 447.74 389.25 439.57 C 388.60 439.69 387.96 439.80 387.32 439.91 C 387.12 439.91 386.72 439.92 386.52 439.93 L 385.15 439.93 C 380.36 441.48 375.64 443.29 370.68 444.27 C 370.35 443.79 369.70 442.82 369.37 442.34 C 366.08 442.82 362.90 443.90 359.68 444.68 C 361.82 444.97 363.96 445.23 366.12 445.36 C 364.66 445.68 363.17 445.95 361.72 446.27 C 356.70 444.29 351.58 446.59 346.67 447.67 C 348.78 447.91 350.90 448.12 353.03 448.32 C 351.48 448.67 349.94 449.00 348.38 449.27 C 345.38 448.51 342.28 448.15 339.21 448.72 C 339.51 449.25 340.10 450.32 340.39 450.86 L 339.76 451.02 C 337.00 449.72 333.95 449.52 330.99 450.11 C 344.79 438.57 359.14 427.07 369.10 411.87 C 367.05 412.24 365.01 412.93 363.85 414.78 C 354.98 426.19 344.20 435.93 332.83 444.77 C 330.46 446.54 328.47 448.73 326.53 450.95 C 326.25 451.06 325.69 451.29 325.41 451.40 C 325.53 452.03 325.77 453.29 325.89 453.92 L 325.42 454.04 C 323.91 453.47 322.44 452.38 320.76 452.66 C 312.21 453.81 304.22 457.21 295.88 459.25 C 296.73 459.57 298.43 460.22 299.28 460.54 C 291.29 463.20 283.19 465.54 275.16 468.10 C 272.35 469.09 269.51 467.78 266.85 466.93 C 267.12 466.27 267.65 464.94 267.92 464.28 C 266.50 464.18 265.09 464.08 263.68 463.99 C 263.78 464.50 264.00 465.50 264.10 466.00 C 262.02 465.34 259.92 464.72 257.85 464.05 C 258.17 463.24 258.49 462.44 258.81 461.64 C 255.14 460.57 251.31 460.02 247.54 460.90 L 246.69 460.68 C 247.24 460.28 248.33 459.46 248.88 459.06 C 247.67 457.53 244.54 457.81 244.91 460.21 C 243.46 459.68 242.00 459.21 240.54 458.74 C 241.82 458.40 243.10 458.02 244.37 457.64 C 240.15 456.65 236.20 454.77 231.95 453.92 C 231.22 454.32 229.77 455.12 229.04 455.52 C 226.31 455.26 223.61 454.83 220.90 454.47 C 220.78 454.15 220.55 453.52 220.43 453.20 C 220.50 452.80 220.66 451.99 220.73 451.58 C 219.96 451.37 219.18 451.16 218.41 450.96 C 217.19 448.21 215.02 446.13 212.55 444.51 C 206.64 440.52 201.78 435.27 196.35 430.70 C 190.73 425.92 186.22 420.05 181.61 414.34 C 180.53 412.70 178.57 412.33 176.81 411.86 C 186.25 427.20 200.84 438.22 214.29 449.80 C 211.60 449.48 208.93 449.87 206.34 450.58 C 206.30 450.57 206.20 450.55 206.16 450.54 C 205.97 449.93 205.59 448.73 205.40 448.12 C 203.48 448.01 201.60 448.41 199.88 449.24 C 198.93 449.05 197.98 448.89 197.03 448.75 C 197.44 448.40 198.27 447.71 198.69 447.37 C 196.90 446.51 194.93 446.99 193.21 447.73 C 192.99 447.67 192.55 447.56 192.33 447.50 C 192.09 446.98 191.60 445.95 191.35 445.43 C 190.01 445.29 188.67 445.23 187.32 445.16 C 187.44 445.68 187.68 446.72 187.80 447.24 L 186.64 447.15 C 184.64 446.64 182.67 446.09 180.68 445.61 C 182.57 445.32 184.44 445.04 186.31 444.65 C 182.79 444.07 179.37 442.63 175.81 442.47 C 175.43 442.87 174.68 443.65 174.30 444.05 C 170.71 443.27 167.14 442.33 163.77 440.83 C 163.73 440.10 163.64 438.65 163.59 437.93 C 161.40 438.55 159.21 439.24 157.18 440.29 C 157.34 442.76 157.55 445.24 157.79 447.71 C 158.32 447.55 159.38 447.24 159.91 447.08 C 159.17 449.74 158.91 452.51 159.55 455.23 C 159.97 453.37 160.40 451.52 160.68 449.64 C 161.17 451.84 161.65 454.05 162.09 456.27 C 160.31 457.09 160.19 458.97 159.92 460.66 C 160.67 460.59 162.19 460.46 162.95 460.39 L 163.11 461.15 L 163.34 461.94 C 161.98 463.14 161.56 465.05 162.43 466.69 C 163.15 465.78 163.59 464.77 163.77 463.65 C 165.56 470.24 167.29 476.85 168.91 483.49 C 166.52 489.05 169.32 495.13 171.38 500.37 C 171.73 499.70 172.43 498.35 172.79 497.68 L 172.95 498.40 C 172.66 500.99 171.79 503.67 172.72 506.24 C 174.26 510.81 175.85 515.38 176.73 520.14 C 177.36 519.40 177.99 518.65 178.60 517.90 C 178.67 518.15 178.81 518.66 178.88 518.91 C 177.82 521.87 178.16 524.93 179.31 527.80 C 179.79 527.87 180.77 528.02 181.26 528.09 C 181.20 530.07 181.07 532.14 181.96 534.00 C 184.59 540.24 187.06 546.55 190.15 552.58 C 190.53 552.09 191.28 551.12 191.66 550.63 C 197.85 563.59 204.72 576.29 213.59 587.63 C 213.25 587.95 212.56 588.60 212.22 588.92 C 207.92 588.58 204.28 585.82 200.05 585.05 C 188.61 580.24 176.89 575.51 167.01 567.83 C 163.06 564.23 158.72 560.59 156.87 555.40 C 155.34 550.82 154.82 545.98 153.60 541.32 C 153.75 540.17 153.92 539.04 154.13 537.91 C 154.87 536.48 155.42 534.82 154.71 533.28 C 154.33 533.75 153.58 534.70 153.20 535.17 C 152.94 534.16 152.65 533.16 152.48 532.14 C 154.01 529.71 154.33 526.29 151.36 524.78 C 151.30 524.32 151.19 523.40 151.14 522.93 C 151.76 521.54 152.60 519.92 151.78 518.43 C 151.44 518.59 150.76 518.90 150.42 519.06 C 150.06 518.30 149.67 517.57 149.37 516.81 C 151.54 514.39 151.53 510.31 148.42 508.67 C 148.31 507.71 148.21 506.76 148.13 505.82 C 148.91 504.15 149.76 502.08 148.54 500.39 C 148.24 500.58 147.63 500.95 147.33 501.14 C 146.99 500.00 146.61 498.87 146.29 497.75 C 146.20 497.10 146.02 495.81 145.93 495.17 C 145.48 491.72 144.82 488.27 145.20 484.79 C 146.21 482.79 146.59 480.50 145.68 478.40 C 145.34 478.82 144.67 479.66 144.33 480.09 C 143.90 477.72 143.55 475.34 143.42 472.95 C 143.27 468.78 141.47 464.77 142.18 460.56 C 143.83 456.85 143.35 452.78 142.71 448.90 C 142.31 450.38 141.93 451.86 141.59 453.37 C 141.23 450.95 140.79 448.52 140.05 446.19 C 139.04 444.86 138.51 443.28 138.43 441.62 C 138.33 440.95 138.12 439.61 138.01 438.94 C 139.21 438.19 139.53 436.44 138.65 435.34 C 138.35 435.57 137.73 436.02 137.43 436.25 C 137.14 435.05 136.83 433.86 136.53 432.68 C 138.02 431.01 137.48 428.80 137.31 426.80 C 136.89 427.14 136.04 427.83 135.62 428.17 C 135.45 426.74 135.33 425.30 135.23 423.87 C 136.12 421.79 136.50 419.47 135.63 417.32 C 135.33 417.69 134.73 418.44 134.43 418.82 C 133.82 408.93 133.93 399.03 134.45 389.14 C 134.73 389.54 135.29 390.32 135.57 390.72 C 136.50 388.54 136.15 386.17 135.25 384.07 C 135.40 382.66 135.57 381.27 135.77 379.88 C 136.00 380.51 136.47 381.76 136.71 382.39 C 137.83 380.24 137.94 377.99 136.37 376.01 C 136.50 374.97 136.64 373.94 136.82 372.92 C 138.16 367.03 137.05 360.98 137.35 355.02 C 137.63 344.49 137.00 333.90 137.66 323.40 C 138.73 319.55 138.71 315.55 139.02 311.60 C 139.94 308.82 140.64 305.93 140.61 302.98 C 140.66 296.25 140.87 289.50 140.37 282.77 C 138.12 288.99 138.91 295.72 138.69 302.20 C 138.35 298.02 138.19 293.82 138.42 289.62 C 138.73 282.16 138.97 274.66 138.31 267.23 C 138.50 266.89 138.87 266.21 139.06 265.86 C 138.87 270.22 139.24 274.57 139.48 278.91 C 139.65 273.41 140.24 267.94 140.32 262.44 C 140.38 257.26 140.07 252.07 140.64 246.92 L 141.29 247.83 C 141.77 248.51 142.72 249.88 143.19 250.56 C 143.14 247.22 144.48 243.14 141.69 240.53 L 141.52 240.30 C 140.93 233.18 142.98 226.33 143.30 219.29 C 143.65 217.41 144.15 215.56 144.56 213.69 C 144.82 214.54 145.35 216.25 145.61 217.10 C 146.26 213.82 146.59 210.40 145.16 207.26 C 144.95 203.12 145.77 199.03 146.02 194.91 C 146.09 194.25 146.21 192.94 146.27 192.28 C 146.59 190.52 147.04 188.79 147.38 187.04 C 147.70 187.45 148.35 188.27 148.68 188.68 C 149.58 186.54 149.16 184.22 148.15 182.21 C 148.14 178.61 148.52 175.04 148.70 171.46 C 148.79 167.64 149.13 163.84 149.87 160.09 C 150.00 161.42 150.17 162.74 150.35 164.07 C 150.60 161.47 150.88 158.88 151.31 156.31 C 154.36 153.98 154.74 149.14 152.31 146.25 C 152.36 145.86 152.46 145.09 152.51 144.70 C 152.72 144.50 153.13 144.10 153.34 143.89 C 153.66 144.01 154.31 144.25 154.63 144.37 C 155.65 142.65 154.92 140.69 153.93 139.17 C 154.01 136.25 154.24 133.34 154.51 130.44 C 154.67 128.73 154.76 127.01 154.88 125.30 L 155.65 125.34 C 156.27 125.39 157.51 125.50 158.13 125.55 C 157.87 123.44 157.46 121.36 157.09 119.27 C 157.24 117.79 157.46 116.31 157.60 114.83 C 157.87 115.02 158.41 115.41 158.67 115.61 C 159.60 114.18 159.42 112.23 158.24 111.01 C 158.40 110.30 158.57 109.59 158.74 108.88 C 161.79 107.54 160.72 104.50 159.93 102.08 C 160.12 100.75 160.34 99.44 160.52 98.11 C 160.72 98.50 161.13 99.26 161.33 99.65 C 162.52 97.98 162.60 95.68 161.23 94.09 C 161.33 93.66 161.54 92.78 161.64 92.35 C 162.21 92.07 163.33 91.52 163.90 91.24 C 163.57 89.50 163.23 87.77 162.89 86.03 C 163.07 84.64 163.29 83.25 163.49 81.86 C 163.77 82.32 164.34 83.25 164.63 83.72 C 165.34 82.20 165.53 80.10 163.99 79.00 C 164.21 77.72 164.42 76.44 164.64 75.17 C 165.07 75.48 165.95 76.11 166.39 76.43 C 167.10 74.61 166.80 72.71 165.45 71.26 C 165.79 69.76 166.14 68.27 166.45 66.77 C 166.76 67.00 167.37 67.46 167.68 67.69 C 168.56 66.54 168.12 64.86 167.03 64.03 C 167.22 63.00 167.39 61.96 167.53 60.91 C 169.89 63.74 171.29 57.42 168.07 57.96 C 168.51 56.25 168.95 54.54 169.32 52.82 C 169.62 53.28 170.23 54.21 170.54 54.67 C 171.24 53.17 171.38 51.16 169.96 50.02 M 181.20 165.39 C 180.44 166.46 180.19 169.18 181.64 169.61 C 182.34 168.52 182.64 165.81 181.20 165.39 M 182.44 172.43 C 181.62 173.58 181.67 175.36 182.41 176.54 C 183.84 176.31 183.93 172.65 182.44 172.43 M 185.36 186.51 C 184.53 187.22 184.48 189.71 185.91 189.57 C 186.76 188.86 186.78 186.37 185.36 186.51 M 304.39 209.03 C 304.57 210.37 305.28 210.61 306.52 209.76 C 306.33 208.41 305.62 208.17 304.39 209.03 M 309.53 210.25 C 309.03 211.94 312.77 212.65 313.14 210.92 C 312.71 209.48 310.53 209.42 309.53 210.25 M 315.08 211.16 C 313.38 211.52 314.64 213.72 315.97 213.12 C 317.68 212.77 316.40 210.54 315.08 211.16 M 222.31 214.18 C 221.16 213.64 219.36 215.61 221.10 216.09 C 222.28 216.67 224.08 214.64 222.31 214.18 M 217.26 216.12 C 217.39 219.44 220.25 214.60 217.26 216.12 M 339.27 222.06 C 339.46 225.38 342.23 220.47 339.27 222.06 M 345.21 225.08 C 345.36 228.41 348.19 223.54 345.21 225.08 M 188.27 234.25 C 180.17 240.79 172.97 248.45 166.81 256.83 C 154.96 272.52 145.87 290.85 143.35 310.50 C 143.94 310.57 145.13 310.71 145.73 310.77 C 147.09 305.20 148.11 299.54 149.90 294.08 C 152.10 286.49 156.10 279.63 159.61 272.62 C 166.03 260.93 174.69 250.61 184.23 241.35 C 186.86 238.60 190.90 236.87 192.07 232.98 C 190.75 233.23 189.29 233.24 188.27 234.25 M 350.86 232.98 C 352.39 237.23 356.86 239.07 359.78 242.21 C 378.70 260.66 393.00 284.56 397.27 310.88 C 397.86 310.77 399.05 310.54 399.64 310.43 C 398.20 296.97 392.98 284.22 386.62 272.38 C 378.25 258.28 368.03 245.09 355.32 234.62 C 354.12 233.43 352.47 233.14 350.86 232.98 M 193.89 304.00 C 195.88 317.18 197.96 330.36 199.48 343.62 C 201.48 354.54 198.49 365.47 196.35 376.13 C 195.88 380.59 192.03 383.21 189.30 386.32 C 184.96 391.39 180.29 396.40 177.70 402.67 C 177.08 404.08 177.27 405.65 177.20 407.15 C 180.28 406.17 180.33 402.41 182.05 400.13 C 186.37 393.64 191.24 387.39 197.22 382.36 C 205.17 384.16 211.67 389.59 218.93 393.06 C 225.92 397.49 233.74 400.34 241.74 402.33 C 251.89 405.38 262.46 407.18 273.08 407.13 C 288.57 406.59 303.90 403.01 318.32 397.43 C 327.99 392.94 336.85 386.84 346.60 382.52 C 348.81 381.36 350.34 383.89 351.77 385.16 C 356.69 390.98 362.26 396.51 365.34 403.61 C 366.09 404.74 366.56 407.38 368.43 406.40 C 368.90 404.12 367.83 401.91 366.79 399.96 C 363.78 394.60 359.68 389.97 355.66 385.37 C 353.43 382.79 350.16 380.73 349.63 377.09 C 347.69 368.83 346.09 360.42 345.48 351.95 C 346.71 335.55 349.57 319.30 352.00 303.05 C 350.95 300.55 348.96 303.39 349.01 304.95 C 347.31 315.05 345.89 325.20 344.54 335.35 C 343.32 343.58 342.10 352.01 343.55 360.29 C 344.66 366.61 345.68 372.95 347.35 379.16 C 334.33 384.39 323.32 393.86 309.70 397.69 C 293.70 402.55 276.75 406.11 260.01 403.51 C 247.50 401.44 234.92 398.47 223.66 392.46 C 215.19 388.23 207.27 382.96 198.64 379.09 C 200.25 368.45 203.90 357.88 202.60 347.00 C 201.14 333.60 199.05 320.27 197.08 306.94 C 196.82 305.59 196.60 304.21 196.03 302.96 C 195.59 300.97 193.21 302.58 193.89 304.00 M 163.17 336.91 C 163.14 339.99 163.54 343.04 163.98 346.08 C 165.36 361.38 165.26 376.75 164.46 392.07 C 164.16 397.41 163.10 402.70 163.20 408.07 C 163.23 409.15 163.36 410.62 164.73 410.73 C 166.60 406.41 166.39 401.57 166.84 396.97 C 168.04 378.65 168.25 360.21 166.36 341.93 C 166.22 339.76 165.59 337.42 163.17 336.91 M 381.19 337.38 C 380.09 338.14 379.84 339.51 379.58 340.73 C 377.90 350.75 378.38 360.93 378.04 371.04 C 378.35 383.70 377.99 396.49 380.30 409.00 C 380.26 410.33 381.25 410.68 382.41 410.53 C 383.13 407.03 381.93 403.50 381.82 400.00 C 380.46 379.73 379.87 359.26 382.59 339.09 C 382.88 337.83 382.41 337.26 381.19 337.38 M 213.09 345.15 C 213.32 349.20 217.12 351.78 219.14 355.03 C 230.64 368.97 241.56 384.50 258.04 392.97 C 259.39 393.55 260.73 394.71 262.30 394.43 C 262.40 393.58 262.52 392.73 262.65 391.88 C 256.69 389.95 251.64 386.08 246.86 382.16 C 235.46 372.11 226.37 359.84 217.12 347.86 C 216.03 346.64 215.01 344.79 213.09 345.15 M 329.58 346.61 C 318.80 360.32 308.37 374.65 294.60 385.58 C 291.73 387.96 288.29 389.40 285.02 391.11 C 284.13 391.63 282.42 392.57 283.24 393.83 C 285.90 394.13 288.34 392.59 290.63 391.44 C 305.45 382.67 315.70 368.49 326.26 355.28 C 328.74 352.01 331.79 349.03 333.14 345.06 C 331.78 345.11 330.35 345.34 329.58 346.61 M 255.03 360.13 C 255.20 368.10 258.36 375.59 261.09 382.95 C 262.30 385.02 263.56 388.82 266.48 388.45 C 266.70 386.81 265.59 385.42 264.95 384.02 C 260.86 376.80 259.09 368.57 257.38 360.53 C 256.80 360.43 255.62 360.23 255.03 360.13 M 286.38 360.27 C 284.41 369.55 282.09 378.99 277.02 387.13 C 277.58 387.73 278.14 388.34 278.70 388.95 C 284.91 380.75 287.21 370.24 288.78 360.26 C 288.18 360.27 286.98 360.27 286.38 360.27 M 138.17 371.44 C 137.34 372.14 137.27 374.65 138.69 374.55 C 139.50 373.83 139.61 371.32 138.17 371.44 M 194.71 399.51 C 200.05 400.71 205.56 400.23 210.98 400.09 C 212.81 400.01 214.72 400.11 216.45 399.36 C 209.24 398.75 201.90 398.49 194.71 399.51 M 302.02 410.99 C 299.56 412.86 296.94 415.05 296.73 418.38 C 297.80 417.13 298.89 415.87 300.34 415.04 C 300.06 415.61 299.48 416.74 299.20 417.31 C 301.95 419.24 305.79 418.96 308.92 420.27 C 315.07 420.46 321.35 420.97 327.42 419.62 C 325.63 421.26 323.16 420.74 320.98 420.75 C 316.16 420.53 311.33 420.80 306.51 420.86 C 304.52 419.18 301.78 419.91 299.43 419.92 C 307.88 423.66 317.40 423.06 326.44 422.46 C 329.73 420.29 334.12 421.36 337.36 418.94 C 336.97 418.53 336.18 417.70 335.78 417.29 C 342.67 414.54 350.27 410.40 352.57 402.81 C 351.22 402.13 349.87 401.46 348.49 400.87 C 349.06 400.44 350.21 399.58 350.78 399.15 C 345.19 398.51 339.56 398.69 333.95 398.77 C 322.46 399.67 311.02 403.66 302.02 410.99 M 216.14 401.64 C 214.11 401.35 212.05 401.27 210.01 401.10 C 204.40 400.33 198.50 400.50 193.15 402.54 C 193.23 402.96 193.37 403.80 193.44 404.23 C 192.74 403.14 191.85 402.24 190.77 401.51 C 190.90 407.42 196.22 411.23 200.30 414.72 C 205.92 417.80 211.86 421.81 218.57 420.95 L 217.64 419.88 C 218.30 420.02 219.62 420.31 220.28 420.45 L 218.93 420.92 L 218.61 422.22 C 225.43 423.02 232.50 422.98 239.34 422.26 L 239.07 420.85 L 237.73 420.50 C 238.39 420.35 239.70 420.06 240.36 419.91 C 240.81 421.28 243.50 421.28 244.56 420.44 C 244.15 420.16 243.32 419.61 242.91 419.33 C 244.62 419.02 246.05 417.99 247.40 416.94 L 248.18 417.55 C 248.17 414.38 245.23 412.64 243.17 410.74 C 237.15 405.51 229.62 402.60 222.13 400.19 C 220.16 400.02 217.01 399.13 216.14 401.64 M 256.25 412.29 C 254.44 417.16 253.18 422.25 251.01 426.99 C 247.08 434.90 241.63 442.22 234.44 447.47 C 232.80 448.68 231.32 450.09 229.95 451.61 C 230.47 451.96 231.51 452.66 232.04 453.01 C 237.35 449.11 242.25 444.63 246.47 439.56 C 252.61 431.54 256.65 422.04 258.90 412.23 C 258.24 412.25 256.91 412.28 256.25 412.29 M 287.04 412.22 C 287.85 417.45 289.91 422.36 291.80 427.27 C 296.37 438.02 304.95 446.38 314.18 453.24 C 314.73 452.62 315.26 451.98 315.78 451.34 C 312.53 448.18 308.66 445.73 305.59 442.38 C 297.20 434.37 292.54 423.40 289.52 412.39 C 288.90 412.35 287.66 412.26 287.04 412.22 M 170.33 441.30 C 170.61 442.62 171.35 442.84 172.55 441.96 C 172.27 440.63 171.53 440.41 170.33 441.30 M 403.45 446.46 C 402.81 448.19 402.34 451.34 403.80 452.55 C 404.59 450.86 404.87 447.63 403.45 446.46 M 292.46 460.33 C 292.71 461.66 293.43 461.87 294.62 460.95 C 294.36 459.60 293.65 459.40 292.46 460.33 M 261.19 463.17 C 261.31 466.49 264.20 461.67 261.19 463.17 M 283.41 463.14 C 283.64 464.46 284.37 464.67 285.59 463.78 C 285.35 462.45 284.62 462.24 283.41 463.14 M 272.97 465.71 C 271.48 465.92 269.75 465.61 268.61 466.84 C 272.95 467.92 277.15 466.36 281.33 465.43 C 281.58 465.12 282.08 464.50 282.32 464.19 C 279.10 464.07 276.16 465.61 272.97 465.71 M 166.20 480.33 C 165.27 481.34 165.48 483.64 166.98 484.03 C 168.94 483.68 168.14 479.59 166.20 480.33 M 369.00 515.21 C 367.39 518.16 372.31 515.43 369.00 515.21 M 366.02 524.14 C 364.45 527.11 369.34 524.31 366.02 524.14 M 363.06 532.11 C 361.43 535.05 366.37 532.35 363.06 532.11 M 155.48 539.98 C 155.24 541.97 155.07 543.98 154.95 546.00 C 155.45 545.69 156.44 545.07 156.94 544.76 C 156.47 543.15 155.99 541.56 155.48 539.98 M 155.99 550.69 C 156.47 551.01 157.45 551.67 157.93 552.00 C 157.87 550.21 157.81 548.43 157.69 546.67 C 156.75 547.83 156.29 549.23 155.99 550.69 M 386.00 556.29 C 384.38 559.23 389.32 556.51 386.00 556.29 M 376.58 567.43 C 380.64 566.11 383.93 562.52 385.55 558.64 C 382.32 561.30 379.52 564.45 376.58 567.43 M 368.24 572.10 C 368.30 575.42 371.25 570.61 368.24 572.10 M 352.32 579.35 C 351.09 580.64 353.55 581.53 354.28 580.41 C 355.53 579.11 353.04 578.20 352.32 579.35 M 194.40 581.12 C 194.61 582.46 195.31 582.68 196.52 581.79 C 196.31 580.43 195.61 580.21 194.40 581.12 Z" />
</g>
<g id="#46474aff">
<path fill="#46474a" opacity="1.00" d=" M 372.55 34.84 C 375.61 39.18 374.57 44.94 376.53 49.70 C 378.33 54.53 377.67 60.03 379.93 64.70 C 381.80 77.53 384.83 90.16 386.84 102.97 L 386.26 103.23 C 385.81 101.53 385.35 99.84 384.93 98.13 C 384.76 96.74 384.58 95.34 384.44 93.95 C 384.33 92.65 384.14 91.36 383.88 90.09 C 383.71 89.10 383.53 88.12 383.34 87.13 C 382.94 85.47 382.47 83.82 382.04 82.18 C 381.79 81.08 381.59 79.98 381.43 78.87 C 381.33 77.57 381.13 76.29 380.85 75.02 C 380.65 73.94 380.49 72.86 380.35 71.78 C 380.26 71.03 380.08 69.53 379.99 68.78 C 379.59 67.12 379.12 65.47 378.67 63.82 C 378.46 62.58 378.21 61.35 377.89 60.13 C 377.78 59.61 377.55 58.59 377.44 58.07 C 376.58 54.06 375.61 50.08 374.64 46.09 C 374.42 45.16 374.22 44.23 374.03 43.30 C 373.48 40.69 372.92 38.09 372.47 35.46 L 372.55 34.84 Z" />
<path fill="#46474a" opacity="1.00" d=" M 406.54 274.97 C 407.65 277.59 407.19 280.49 407.15 283.26 C 406.57 280.54 406.37 277.74 406.54 274.97 Z" />
<path fill="#46474a" opacity="1.00" d=" M 137.80 289.58 L 138.42 289.62 C 138.19 293.82 138.35 298.02 138.69 302.20 C 138.82 305.33 138.97 308.46 139.02 311.60 C 138.71 315.55 138.73 319.55 137.66 323.40 C 136.82 312.14 137.97 300.85 137.80 289.58 Z" />
<path fill="#46474a" opacity="1.00" d=" M 163.17 336.91 C 165.59 337.42 166.22 339.76 166.36 341.93 C 168.25 360.21 168.04 378.65 166.84 396.97 C 166.39 401.57 166.60 406.41 164.73 410.73 C 163.36 410.62 163.23 409.15 163.20 408.07 C 163.10 402.70 164.16 397.41 164.46 392.07 C 165.26 376.75 165.36 361.38 163.98 346.08 C 163.54 343.04 163.14 339.99 163.17 336.91 Z" />
<path fill="#46474a" opacity="1.00" d=" M 136.09 373.81 C 136.27 373.59 136.64 373.14 136.82 372.92 C 136.64 373.94 136.50 374.97 136.37 376.01 C 136.22 376.98 135.92 378.92 135.77 379.88 C 135.57 381.27 135.40 382.66 135.25 384.07 C 134.89 385.74 134.39 387.41 134.45 389.14 C 133.93 399.03 133.82 408.93 134.43 418.82 C 134.37 420.53 134.87 422.20 135.23 423.87 C 135.33 425.30 135.45 426.74 135.62 428.17 C 135.83 429.69 136.13 431.19 136.53 432.68 C 136.83 433.86 137.14 435.05 137.43 436.25 C 137.57 436.92 137.87 438.26 138.01 438.94 C 138.12 439.61 138.33 440.95 138.43 441.62 L 137.68 441.66 C 136.52 435.48 134.31 429.43 134.34 423.02 C 132.45 414.46 133.09 405.66 133.02 396.97 C 133.14 393.61 132.93 390.12 134.25 386.97 C 134.29 382.52 135.15 378.14 136.09 373.81 Z" />
<path fill="#46474a" opacity="1.00" d=" M 411.11 385.74 L 411.36 384.25 C 413.01 394.51 412.68 405.05 412.16 415.41 L 412.09 414.52 C 412.02 413.27 411.97 412.01 411.93 410.77 C 412.08 404.59 412.43 398.34 411.14 392.25 C 411.11 390.07 411.09 387.91 411.11 385.74 Z" />
</g>
<g id="#050507ff">
<path fill="#050507" opacity="1.00" d=" M 371.68 50.99 C 371.77 45.81 371.31 40.56 372.47 35.46 C 372.92 38.09 373.48 40.69 374.03 43.30 C 373.47 45.16 372.94 47.06 372.94 49.01 C 372.89 63.03 373.39 77.08 372.47 91.08 C 371.00 77.77 371.93 64.35 371.68 50.99 Z" />
<path fill="#050507" opacity="1.00" d=" M 134.43 418.82 C 134.73 418.44 135.33 417.69 135.63 417.32 C 136.50 419.47 136.12 421.79 135.23 423.87 C 134.87 422.20 134.37 420.53 134.43 418.82 Z" />
</g>
<g id="#3d3c40f3">
<path fill="#3d3c40" opacity="0.95" d=" M 173.96 60.05 C 174.24 52.16 172.50 44.15 174.84 36.42 C 175.70 44.23 175.01 52.12 175.23 59.96 C 175.11 65.18 175.57 70.43 174.87 75.62 C 173.31 70.57 174.06 65.25 173.96 60.05 Z" />
</g>
<g id="#131217ff">
<path fill="#131217" opacity="1.00" d=" M 375.53 58.75 C 375.12 54.55 373.56 50.30 374.64 46.09 C 375.61 50.08 376.58 54.06 377.44 58.07 C 376.96 58.24 376.01 58.58 375.53 58.75 Z" />
<path fill="#131217" opacity="1.00" d=" M 405.83 255.02 C 407.67 258.86 405.85 263.00 406.47 267.02 C 406.92 269.65 406.69 272.31 406.54 274.97 C 406.37 277.74 406.57 280.54 407.15 283.26 C 407.50 285.15 407.94 287.05 407.83 288.99 C 407.48 295.57 407.73 302.17 407.56 308.76 C 407.38 313.77 407.35 318.80 407.68 323.80 C 407.82 333.88 407.73 343.96 407.70 354.04 C 407.83 359.86 406.63 365.73 407.95 371.50 L 406.03 371.62 C 405.76 362.09 406.05 352.56 406.07 343.02 C 406.37 327.20 405.06 311.31 407.00 295.55 C 406.86 291.44 408.26 286.67 405.86 283.05 C 405.84 280.08 405.76 277.11 405.81 274.14 C 406.07 271.61 406.06 269.06 405.99 266.52 C 406.17 262.69 406.23 258.84 405.83 255.02 Z" />
<path fill="#131217" opacity="1.00" d=" M 302.02 410.99 C 311.02 403.66 322.46 399.67 333.95 398.77 C 339.56 398.69 345.19 398.51 350.78 399.15 C 350.21 399.58 349.06 400.44 348.49 400.87 C 331.53 399.64 313.10 403.05 300.34 415.04 C 298.89 415.87 297.80 417.13 296.73 418.38 C 296.94 415.05 299.56 412.86 302.02 410.99 Z" />
<path fill="#131217" opacity="1.00" d=" M 216.14 401.64 C 217.01 399.13 220.16 400.02 222.13 400.19 C 229.62 402.60 237.15 405.51 243.17 410.74 C 245.23 412.64 248.17 414.38 248.18 417.55 L 247.40 416.94 C 246.62 416.32 245.85 415.69 245.11 415.04 C 241.87 411.68 237.87 409.22 233.83 406.96 C 231.11 405.00 228.10 403.30 224.65 403.39 C 221.83 402.71 218.99 402.13 216.14 401.64 Z" />
<path fill="#131217" opacity="1.00" d=" M 190.77 401.51 C 191.85 402.24 192.74 403.14 193.44 404.23 C 196.34 410.41 202.42 414.27 208.55 416.76 C 211.40 418.27 214.53 419.09 217.64 419.88 L 218.57 420.95 C 211.86 421.81 205.92 417.80 200.30 414.72 C 196.22 411.23 190.90 407.42 190.77 401.51 Z" />
<path fill="#131217" opacity="1.00" d=" M 330.99 450.11 C 333.95 449.52 337.00 449.72 339.76 451.02 C 335.17 452.15 330.47 452.74 325.89 453.92 C 325.77 453.29 325.53 452.03 325.41 451.40 C 325.69 451.29 326.25 451.06 326.53 450.95 C 328.01 450.64 329.50 450.39 330.99 450.11 Z" />
<path fill="#131217" opacity="1.00" d=" M 229.04 455.52 C 229.77 455.12 231.22 454.32 231.95 453.92 C 236.20 454.77 240.15 456.65 244.37 457.64 C 243.10 458.02 241.82 458.40 240.54 458.74 C 236.70 457.68 232.94 456.36 229.04 455.52 Z" />
<path fill="#131217" opacity="1.00" d=" M 247.54 460.90 C 251.31 460.02 255.14 460.57 258.81 461.64 C 258.49 462.44 258.17 463.24 257.85 464.05 C 254.43 462.95 250.98 461.94 247.54 460.90 Z" />
<path fill="#131217" opacity="1.00" d=" M 172.95 498.40 C 174.63 504.96 176.68 511.41 178.60 517.90 C 177.99 518.65 177.36 519.40 176.73 520.14 C 175.85 515.38 174.26 510.81 172.72 506.24 C 171.79 503.67 172.66 500.99 172.95 498.40 Z" />
</g>
<g id="#0b0b0eff">
<path fill="#0b0b0e" opacity="1.00" d=" M 169.96 50.02 C 171.38 51.16 171.24 53.17 170.54 54.67 C 170.23 54.21 169.62 53.28 169.32 52.82 C 169.48 52.12 169.80 50.72 169.96 50.02 Z" />
<path fill="#0b0b0e" opacity="1.00" d=" M 185.36 186.51 C 186.78 186.37 186.76 188.86 185.91 189.57 C 184.48 189.71 184.53 187.22 185.36 186.51 Z" />
</g>
<g id="#111013fc">
<path fill="#111013" opacity="1.00" d=" M 168.07 57.96 C 171.29 57.42 169.89 63.74 167.53 60.91 C 167.67 60.17 167.93 58.70 168.07 57.96 Z" />
</g>
<g id="#08080bff">
<path fill="#08080b" opacity="1.00" d=" M 377.44 64.65 C 376.43 63.26 376.92 61.39 377.89 60.13 C 378.21 61.35 378.46 62.58 378.67 63.82 C 378.36 64.03 377.75 64.44 377.44 64.65 Z" />
<path fill="#08080b" opacity="1.00" d=" M 360.07 184.19 C 361.95 184.72 361.63 188.85 359.57 186.92 C 359.69 186.24 359.95 184.87 360.07 184.19 Z" />
<path fill="#08080b" opacity="1.00" d=" M 304.39 209.03 C 305.62 208.17 306.33 208.41 306.52 209.76 C 305.28 210.61 304.57 210.37 304.39 209.03 Z" />
</g>
<g id="#070709ff">
<path fill="#070709" opacity="1.00" d=" M 167.03 64.03 C 168.12 64.86 168.56 66.54 167.68 67.69 C 167.37 67.46 166.76 67.00 166.45 66.77 C 166.59 66.08 166.89 64.72 167.03 64.03 Z" />
<path fill="#070709" opacity="1.00" d=" M 380.34 79.59 C 379.39 78.16 379.65 76.21 380.85 75.02 C 381.13 76.29 381.33 77.57 381.43 78.87 C 381.16 79.05 380.62 79.41 380.34 79.59 Z" />
<path fill="#070709" opacity="1.00" d=" M 286.41 206.57 C 286.59 206.29 286.93 205.73 287.10 205.45 C 288.99 205.50 290.87 205.77 292.75 206.06 C 290.79 207.00 288.45 207.73 286.41 206.57 Z" />
<path fill="#070709" opacity="1.00" d=" M 135.25 384.07 C 136.15 386.17 136.50 388.54 135.57 390.72 C 135.29 390.32 134.73 389.54 134.45 389.14 C 134.39 387.41 134.89 385.74 135.25 384.07 Z" />
</g>
<g id="#151518fa">
<path fill="#151518" opacity="0.98" d=" M 378.10 68.32 C 378.57 68.44 379.52 68.67 379.99 68.78 C 380.08 69.53 380.26 71.03 380.35 71.78 C 379.93 72.24 379.10 73.15 378.68 73.61 C 378.47 71.84 378.28 70.08 378.10 68.32 Z" />
</g>
<g id="#121214f8">
<path fill="#121214" opacity="0.97" d=" M 165.45 71.26 C 166.80 72.71 167.10 74.61 166.39 76.43 C 165.95 76.11 165.07 75.48 164.64 75.17 C 164.84 74.19 165.24 72.24 165.45 71.26 Z" />
</g>
<g id="#0a0a0bff">
<path fill="#0a0a0b" opacity="1.00" d=" M 163.99 79.00 C 165.53 80.10 165.34 82.20 164.63 83.72 C 164.34 83.25 163.77 82.32 163.49 81.86 C 163.61 81.14 163.87 79.71 163.99 79.00 Z" />
<path fill="#0a0a0b" opacity="1.00" d=" M 145.16 207.26 C 146.59 210.40 146.26 213.82 145.61 217.10 C 145.35 216.25 144.82 214.54 144.56 213.69 C 144.78 211.55 145.00 209.40 145.16 207.26 Z" />
<path fill="#0a0a0b" opacity="1.00" d=" M 147.33 501.14 C 147.63 500.95 148.24 500.58 148.54 500.39 C 149.76 502.08 148.91 504.15 148.13 505.82 C 147.82 504.26 147.52 502.70 147.33 501.14 Z" />
</g>
<g id="#131315f7">
<path fill="#131315" opacity="0.97" d=" M 380.87 88.08 C 381.23 86.11 381.61 84.14 382.04 82.18 C 382.47 83.82 382.94 85.47 383.34 87.13 C 382.72 87.37 381.49 87.85 380.87 88.08 Z" />
<path fill="#131315" opacity="0.97" d=" M 388.13 555.10 C 385.89 553.99 386.45 550.80 389.08 550.96 C 388.85 552.35 388.53 553.73 388.13 555.10 Z" />
</g>
<g id="#141417f7">
<path fill="#141417" opacity="0.97" d=" M 162.89 86.03 C 163.23 87.77 163.57 89.50 163.90 91.24 C 163.33 91.52 162.21 92.07 161.64 92.35 C 162.06 90.24 162.45 88.13 162.89 86.03 Z" />
</g>
<g id="#0c0c0dff">
<path fill="#0c0c0d" opacity="1.00" d=" M 383.33 95.57 C 382.49 93.80 382.38 91.55 383.88 90.09 C 384.14 91.36 384.33 92.65 384.44 93.95 C 384.17 94.35 383.61 95.16 383.33 95.57 Z" />
<path fill="#0c0c0d" opacity="1.00" d=" M 188.14 201.51 C 187.53 200.34 187.84 198.65 189.13 198.08 C 189.20 198.80 189.36 200.24 189.43 200.96 C 189.11 201.10 188.47 201.37 188.14 201.51 Z" />
</g>
<g id="#3e3e3ec5">
<path fill="#3e3e3e" opacity="0.77" d=" M 175.20 90.68 C 175.46 91.09 175.97 91.90 176.22 92.31 C 176.11 97.85 176.12 103.41 175.41 108.93 C 175.42 102.84 174.76 96.77 175.20 90.68 Z" />
</g>
<g id="#0c0b0eff">
<path fill="#0c0b0e" opacity="1.00" d=" M 161.23 94.09 C 162.60 95.68 162.52 97.98 161.33 99.65 C 161.13 99.26 160.72 98.50 160.52 98.11 C 160.63 96.75 160.87 95.41 161.23 94.09 Z" />
</g>
<g id="#131315f4">
<path fill="#131315" opacity="0.96" d=" M 383.87 104.18 C 384.21 102.16 384.60 100.15 384.93 98.13 C 385.35 99.84 385.81 101.53 386.26 103.23 C 385.66 103.47 384.47 103.94 383.87 104.18 Z" />
</g>
<g id="#121216f4">
<path fill="#121216" opacity="0.96" d=" M 159.93 102.08 C 160.72 104.50 161.79 107.54 158.74 108.88 C 159.09 106.60 159.47 104.33 159.93 102.08 Z" />
</g>
<g id="#2c2c2d88">
<path fill="#2c2c2d" opacity="0.53" d=" M 387.69 109.25 L 387.63 108.32 C 389.40 111.30 388.94 114.88 389.86 118.12 C 392.00 131.43 394.12 144.72 395.86 158.08 C 395.79 158.82 395.64 160.31 395.57 161.05 C 395.22 160.34 394.88 159.64 394.57 158.93 C 394.47 157.32 394.20 155.73 393.96 154.15 C 393.97 151.92 393.80 149.69 393.44 147.49 C 393.19 145.43 392.99 143.37 392.76 141.31 C 392.40 140.50 392.04 139.69 391.65 138.90 C 391.78 137.30 391.31 135.73 391.06 134.17 C 390.94 132.36 390.85 130.55 390.60 128.76 C 390.29 126.83 389.91 124.92 389.56 123.00 C 389.47 122.55 389.39 122.11 389.32 121.67 C 388.92 119.52 388.56 117.37 388.20 115.22 C 388.00 113.23 387.84 111.24 387.69 109.25 Z" />
</g>
<g id="#080809ff">
<path fill="#080809" opacity="1.00" d=" M 158.24 111.01 C 159.42 112.23 159.60 114.18 158.67 115.61 C 158.41 115.41 157.87 115.02 157.60 114.83 C 157.69 113.53 157.90 112.26 158.24 111.01 Z" />
<path fill="#080809" opacity="1.00" d=" M 181.20 165.39 C 182.64 165.81 182.34 168.52 181.64 169.61 C 180.19 169.18 180.44 166.46 181.20 165.39 Z" />
<path fill="#080809" opacity="1.00" d=" M 144.33 480.09 C 144.67 479.66 145.34 478.82 145.68 478.40 C 146.59 480.50 146.21 482.79 145.20 484.79 C 144.90 483.21 144.57 481.65 144.33 480.09 Z" />
</g>
<g id="#0a0a0cff">
<path fill="#0a0a0c" opacity="1.00" d=" M 175.49 125.30 C 174.80 121.20 174.85 117.02 175.44 112.91 C 175.68 113.77 176.17 115.49 176.41 116.34 C 176.38 118.46 176.40 120.57 176.44 122.69 C 176.20 123.34 175.73 124.65 175.49 125.30 Z" />
<path fill="#0a0a0c" opacity="1.00" d=" M 393.26 522.23 C 393.55 522.41 394.14 522.78 394.43 522.96 C 394.54 524.30 394.35 525.62 393.85 526.91 C 393.12 525.48 392.38 523.76 393.26 522.23 Z" />
</g>
<g id="#2f2f319d">
<path fill="#2f2f31" opacity="0.62" d=" M 176.41 116.34 L 176.48 115.15 C 177.63 117.25 177.86 119.66 177.88 122.01 C 177.85 123.96 177.72 125.90 177.62 127.84 C 177.21 126.13 176.79 124.41 176.44 122.69 C 176.40 120.57 176.38 118.46 176.41 116.34 Z" />
</g>
<g id="#121115f5">
<path fill="#121115" opacity="0.96" d=" M 389.32 121.67 C 386.25 120.67 386.73 117.33 388.20 115.22 C 388.56 117.37 388.92 119.52 389.32 121.67 Z" />
</g>
<g id="#111113f5">
<path fill="#111113" opacity="0.96" d=" M 157.09 119.27 C 157.46 121.36 157.87 123.44 158.13 125.55 C 157.51 125.50 156.27 125.39 155.65 125.34 C 156.17 123.32 156.63 121.30 157.09 119.27 Z" />
</g>
<g id="#1a1a1cd9">
<path fill="#1a1a1c" opacity="0.85" d=" M 368.76 120.52 L 369.02 121.69 C 369.79 125.01 370.04 128.41 370.02 131.82 C 369.44 131.56 368.29 131.04 367.72 130.78 C 367.34 127.32 367.76 123.84 368.76 120.52 Z" />
</g>
<g id="#121114ff">
<path fill="#121114" opacity="1.00" d=" M 389.09 131.05 C 388.68 128.36 387.79 125.42 389.56 123.00 C 389.91 124.92 390.29 126.83 390.60 128.76 C 390.22 129.33 389.47 130.47 389.09 131.05 Z" />
</g>
<g id="#2c2c2e91">
<path fill="#2c2c2e" opacity="0.57" d=" M 152.58 139.40 C 153.22 136.41 152.60 133.03 154.51 130.44 C 154.24 133.34 154.01 136.25 153.93 139.17 C 153.68 140.73 153.44 142.30 153.34 143.89 C 153.13 144.10 152.72 144.50 152.51 144.70 C 152.46 145.09 152.36 145.86 152.31 146.25 C 151.97 149.60 151.73 152.96 151.31 156.31 C 150.88 158.88 150.60 161.47 150.35 164.07 C 150.17 162.74 150.00 161.42 149.87 160.09 C 149.58 156.33 150.45 152.63 151.26 148.99 C 151.67 145.79 151.86 142.56 152.58 139.40 Z" />
</g>
<g id="#2f2f318f">
<path fill="#2f2f31" opacity="0.56" d=" M 178.89 145.21 C 179.01 141.33 178.53 137.47 178.28 133.60 C 180.29 136.70 179.53 140.51 180.03 143.98 C 180.24 147.13 181.40 150.26 180.68 153.42 C 180.34 152.32 179.92 151.24 179.59 150.14 C 179.44 148.48 179.16 146.85 178.89 145.21 Z" />
</g>
<g id="#0b0b0dff">
<path fill="#0b0b0d" opacity="1.00" d=" M 390.37 139.48 C 389.47 137.71 390.18 135.78 391.06 134.17 C 391.31 135.73 391.78 137.30 391.65 138.90 C 391.33 139.05 390.69 139.33 390.37 139.48 Z" />
<path fill="#0b0b0d" opacity="1.00" d=" M 361.89 176.12 C 362.73 176.85 363.76 178.55 362.49 179.40 C 362.17 179.25 361.52 178.96 361.20 178.81 C 361.37 178.14 361.72 176.79 361.89 176.12 Z" />
</g>
<g id="#09080dff">
<path fill="#09080d" opacity="1.00" d=" M 153.93 139.17 C 154.92 140.69 155.65 142.65 154.63 144.37 C 154.31 144.25 153.66 144.01 153.34 143.89 C 153.44 142.30 153.68 140.73 153.93 139.17 Z" />
<path fill="#09080d" opacity="1.00" d=" M 198.95 225.20 C 199.38 225.08 200.25 224.84 200.68 224.72 C 200.34 226.35 199.77 226.51 198.95 225.20 Z" />
</g>
<g id="#31313288">
<path fill="#313132" opacity="0.53" d=" M 366.77 139.63 C 366.58 142.87 366.17 146.09 366.16 149.33 C 365.89 151.14 365.62 152.94 365.29 154.74 C 365.13 155.58 364.80 157.28 364.64 158.12 C 364.45 157.12 364.28 156.11 364.13 155.11 C 365.29 149.99 364.38 144.43 366.77 139.63 Z" />
</g>
<g id="#141416fa">
<path fill="#141416" opacity="0.98" d=" M 392.35 150.23 C 391.23 147.30 390.59 143.95 392.76 141.31 C 392.99 143.37 393.19 145.43 393.44 147.49 C 393.17 148.18 392.63 149.55 392.35 150.23 Z" />
</g>
<g id="#0a090cff">
<path fill="#0a090c" opacity="1.00" d=" M 178.63 151.59 C 177.27 149.60 177.73 147.16 178.89 145.21 C 179.16 146.85 179.44 148.48 179.59 150.14 C 179.35 150.50 178.87 151.23 178.63 151.59 Z" />
</g>
<g id="#17161afb">
<path fill="#17161a" opacity="1.00" d=" M 152.31 146.25 C 154.74 149.14 154.36 153.98 151.31 156.31 C 151.73 152.96 151.97 149.60 152.31 146.25 Z" />
</g>
<g id="#131314ec">
<path fill="#131314" opacity="0.93" d=" M 366.16 149.33 C 367.04 151.82 367.20 154.45 366.81 157.06 C 366.43 156.48 365.67 155.32 365.29 154.74 C 365.62 152.94 365.89 151.14 366.16 149.33 Z" />
</g>
<g id="#08080aff">
<path fill="#08080a" opacity="1.00" d=" M 393.42 159.64 C 392.31 157.88 392.99 155.79 393.96 154.15 C 394.20 155.73 394.47 157.32 394.57 158.93 C 394.28 159.11 393.70 159.47 393.42 159.64 Z" />
</g>
<g id="#48484cff">
<path fill="#48484c" opacity="1.00" d=" M 363.81 161.76 C 363.73 164.26 363.56 166.77 363.14 169.23 C 362.86 170.49 362.65 171.75 362.49 173.03 C 362.32 174.06 362.12 175.09 361.89 176.12 C 361.72 176.79 361.37 178.14 361.20 178.81 C 360.81 180.60 360.45 182.39 360.07 184.19 C 359.95 184.87 359.69 186.24 359.57 186.92 C 359.44 187.47 359.19 188.58 359.06 189.13 C 358.86 189.81 358.48 191.16 358.29 191.83 C 357.91 193.29 357.47 194.74 357.03 196.18 C 356.93 196.59 356.72 197.42 356.62 197.84 C 356.49 198.41 356.24 199.56 356.11 200.14 C 355.91 200.81 355.51 202.15 355.31 202.82 C 354.95 203.85 354.53 204.86 354.13 205.87 C 354.04 206.63 353.86 208.13 353.76 208.88 C 353.59 209.20 353.26 209.84 353.09 210.16 C 352.90 210.55 352.54 211.33 352.36 211.72 C 351.88 212.81 351.38 213.90 350.86 214.98 L 350.49 215.74 L 350.24 216.24 C 350.64 214.38 351.06 212.50 352.09 210.87 C 353.45 204.65 356.36 198.84 356.90 192.43 C 357.21 192.08 357.83 191.38 358.14 191.04 C 358.69 184.24 361.10 177.84 361.95 171.11 C 362.61 168.00 362.45 164.71 363.81 161.76 Z" />
<path fill="#48484c" opacity="1.00" d=" M 350.86 232.98 C 352.47 233.14 354.12 233.43 355.32 234.62 C 368.03 245.09 378.25 258.28 386.62 272.38 C 392.98 284.22 398.20 296.97 399.64 310.43 C 399.05 310.54 397.86 310.77 397.27 310.88 C 393.00 284.56 378.70 260.66 359.78 242.21 C 356.86 239.07 352.39 237.23 350.86 232.98 Z" />
</g>
<g id="#31313293">
<path fill="#313132" opacity="0.58" d=" M 396.88 176.22 C 396.88 172.68 396.43 169.17 396.24 165.65 C 398.59 170.40 397.70 175.92 398.82 181.00 C 398.77 182.32 398.70 183.65 398.61 184.97 C 398.23 183.68 397.85 182.39 397.54 181.08 C 397.40 179.45 397.12 177.83 396.88 176.22 Z" />
</g>
<g id="#09090aff">
<path fill="#09090a" opacity="1.00" d=" M 363.14 169.23 C 363.98 170.32 365.12 172.33 363.67 173.40 C 363.38 173.30 362.79 173.12 362.49 173.03 C 362.65 171.75 362.86 170.49 363.14 169.23 Z" />
<path fill="#09090a" opacity="1.00" d=" M 150.42 519.06 C 150.76 518.90 151.44 518.59 151.78 518.43 C 152.60 519.92 151.76 521.54 151.14 522.93 C 150.64 521.67 150.40 520.38 150.42 519.06 Z" />
</g>
<g id="#30303094">
<path fill="#303030" opacity="0.58" d=" M 147.03 179.98 C 147.38 177.11 146.94 173.95 148.70 171.46 C 148.52 175.04 148.14 178.61 148.15 182.21 C 147.86 183.81 147.55 185.41 147.38 187.04 C 147.04 188.79 146.59 190.52 146.27 192.28 C 145.28 188.16 146.84 184.09 147.03 179.98 Z" />
</g>
<g id="#0c0c0fff">
<path fill="#0c0c0f" opacity="1.00" d=" M 182.44 172.43 C 183.93 172.65 183.84 176.31 182.41 176.54 C 181.67 175.36 181.62 173.58 182.44 172.43 Z" />
</g>
<g id="#070708ff">
<path fill="#070708" opacity="1.00" d=" M 396.29 182.68 C 395.33 180.54 395.80 178.20 396.88 176.22 C 397.12 177.83 397.40 179.45 397.54 181.08 C 397.23 181.48 396.60 182.28 396.29 182.68 Z" />
<path fill="#070708" opacity="1.00" d=" M 339.27 222.06 C 342.23 220.47 339.46 225.38 339.27 222.06 Z" />
</g>
<g id="#09090bff">
<path fill="#09090b" opacity="1.00" d=" M 183.92 184.63 C 183.49 183.40 183.69 181.50 185.29 181.31 C 185.36 181.70 185.48 182.49 185.55 182.88 C 185.14 183.32 184.33 184.20 183.92 184.63 Z" />
<path fill="#09090b" opacity="1.00" d=" M 403.45 446.46 C 404.87 447.63 404.59 450.86 403.80 452.55 C 402.34 451.34 402.81 448.19 403.45 446.46 Z" />
</g>
<g id="#060608ff">
<path fill="#060608" opacity="1.00" d=" M 148.15 182.21 C 149.16 184.22 149.58 186.54 148.68 188.68 C 148.35 188.27 147.70 187.45 147.38 187.04 C 147.55 185.41 147.86 183.81 148.15 182.21 Z" />
</g>
<g id="#0b0a0dff">
<path fill="#0b0a0d" opacity="1.00" d=" M 359.06 189.13 C 359.84 189.94 360.83 191.65 359.55 192.49 C 359.23 192.33 358.60 192.00 358.29 191.83 C 358.48 191.16 358.86 189.81 359.06 189.13 Z" />
</g>
<g id="#2d2d2d95">
<path fill="#2d2d2d" opacity="0.58" d=" M 399.75 200.49 C 399.88 196.85 399.40 193.24 399.23 189.62 C 400.03 191.26 400.66 193.03 400.63 194.89 C 400.76 202.03 402.74 209.07 401.76 216.24 C 401.48 213.07 401.09 209.91 400.54 206.77 C 400.26 204.68 399.96 202.59 399.75 200.49 Z" />
</g>
<g id="#2b2b2c81">
<path fill="#2b2b2c" opacity="0.51" d=" M 188.52 193.70 C 190.09 195.02 189.88 197.23 190.25 199.07 C 190.48 199.45 190.95 200.20 191.18 200.57 C 191.98 204.44 193.34 208.15 194.33 211.96 C 193.59 211.25 192.83 210.56 192.07 209.88 C 192.07 209.43 192.09 208.52 192.10 208.06 C 191.94 207.47 191.62 206.29 191.45 205.70 C 191.36 205.28 191.16 204.43 191.06 204.01 C 190.92 203.29 190.64 201.85 190.50 201.13 C 190.23 201.09 189.70 201.00 189.43 200.96 C 189.36 200.24 189.20 198.80 189.13 198.08 C 188.87 196.62 188.69 195.16 188.52 193.70 Z" />
</g>
<g id="#2f2f308b">
<path fill="#2f2f30" opacity="0.55" d=" M 144.12 205.91 C 144.55 202.22 143.80 198.16 146.02 194.91 C 145.77 199.03 144.95 203.12 145.16 207.26 C 145.00 209.40 144.78 211.55 144.56 213.69 C 144.15 215.56 143.65 217.41 143.30 219.29 C 142.44 214.81 143.87 210.37 144.12 205.91 Z" />
</g>
<g id="#0b0b0cfd">
<path fill="#0b0b0c" opacity="1.00" d=" M 357.03 196.18 C 359.32 196.19 358.19 200.05 356.62 197.84 C 356.72 197.42 356.93 196.59 357.03 196.18 Z" />
</g>
<g id="#0d0d0eff">
<path fill="#0d0d0e" opacity="1.00" d=" M 356.11 200.14 C 356.95 200.90 357.90 202.64 356.59 203.44 C 356.27 203.29 355.63 202.98 355.31 202.82 C 355.51 202.15 355.91 200.81 356.11 200.14 Z" />
<path fill="#0d0d0e" opacity="1.00" d=" M 137.43 436.25 C 137.73 436.02 138.35 435.57 138.65 435.34 C 139.53 436.44 139.21 438.19 138.01 438.94 C 137.87 438.26 137.57 436.92 137.43 436.25 Z" />
</g>
<g id="#070609ff">
<path fill="#070609" opacity="1.00" d=" M 399.04 209.28 C 398.65 206.32 398.87 203.34 399.75 200.49 C 399.96 202.59 400.26 204.68 400.54 206.77 C 400.17 207.40 399.41 208.65 399.04 209.28 Z" />
</g>
<g id="#111112fb">
<path fill="#111112" opacity="1.00" d=" M 191.45 205.70 C 189.50 208.94 187.63 203.20 191.06 204.01 C 191.16 204.43 191.36 205.28 191.45 205.70 Z" />
</g>
<g id="#30303187">
<path fill="#303031" opacity="0.53" d=" M 250.17 205.10 C 254.59 204.74 258.93 203.11 263.40 203.98 C 261.54 204.35 259.68 204.76 257.82 205.12 C 255.96 205.42 254.08 205.65 252.21 205.86 C 249.97 206.06 247.74 206.32 245.51 206.56 C 246.78 205.35 248.52 205.25 250.17 205.10 Z" />
</g>
<g id="#3030319c">
<path fill="#303031" opacity="0.61" d=" M 281.63 203.94 C 285.82 203.33 289.92 204.51 294.06 204.93 C 296.17 205.22 298.52 205.10 300.22 206.62 C 297.74 206.27 295.24 206.11 292.75 206.06 C 290.87 205.77 288.99 205.50 287.10 205.45 C 285.26 204.98 283.46 204.41 281.63 203.94 Z" />
</g>
<g id="#131314eb">
<path fill="#131314" opacity="0.92" d=" M 252.21 205.86 C 254.08 205.65 255.96 205.42 257.82 205.12 C 258.61 205.72 259.40 206.32 260.19 206.93 C 257.50 206.97 254.58 207.49 252.21 205.86 Z" />
</g>
<g id="#161618fb">
<path fill="#161618" opacity="1.00" d=" M 354.13 205.87 C 357.01 205.19 356.45 209.67 353.76 208.88 C 353.86 208.13 354.04 206.63 354.13 205.87 Z" />
</g>
<g id="#3131328f">
<path fill="#313132" opacity="0.56" d=" M 234.67 208.27 C 236.96 207.94 239.24 207.58 241.50 207.09 C 241.57 207.32 241.72 207.76 241.79 207.99 C 241.30 208.11 240.33 208.36 239.84 208.48 C 239.42 208.58 238.59 208.80 238.17 208.91 C 237.31 209.04 235.59 209.30 234.73 209.43 L 234.67 208.27 Z" />
</g>
<g id="#030304ff">
<path fill="#030304" opacity="1.00" d=" M 192.07 209.88 C 190.66 209.06 190.67 208.45 192.10 208.06 C 192.09 208.52 192.07 209.43 192.07 209.88 Z" />
</g>
<g id="#0a090bff">
<path fill="#0a090b" opacity="1.00" d=" M 238.17 208.91 C 238.59 208.80 239.42 208.58 239.84 208.48 C 240.26 208.65 241.11 208.99 241.53 209.16 C 241.73 211.02 238.63 210.12 238.17 208.91 Z" />
</g>
<g id="#2d2d2e95">
<path fill="#2d2d2e" opacity="0.58" d=" M 224.22 211.97 C 226.28 211.31 228.36 210.70 230.43 210.05 C 230.37 210.48 230.32 210.91 230.29 211.34 L 229.44 211.67 C 228.38 212.09 227.33 212.53 226.29 212.97 C 225.77 212.72 224.74 212.22 224.22 211.97 Z" />
</g>
<g id="#111015ff">
<path fill="#111015" opacity="1.00" d=" M 309.53 210.25 C 310.53 209.42 312.71 209.48 313.14 210.92 C 312.77 212.65 309.03 211.94 309.53 210.25 Z" />
</g>
<g id="#08070aff">
<path fill="#08070a" opacity="1.00" d=" M 353.09 210.16 C 355.36 210.47 353.63 214.03 352.36 211.72 C 352.54 211.33 352.90 210.55 353.09 210.16 Z" />
</g>
<g id="#101012f8">
<path fill="#101012" opacity="0.97" d=" M 315.08 211.16 C 316.40 210.54 317.68 212.77 315.97 213.12 C 314.64 213.72 313.38 211.52 315.08 211.16 Z" />
</g>
<g id="#09090cff">
<path fill="#09090c" opacity="1.00" d=" M 229.44 211.67 L 230.29 211.34 C 232.00 212.96 228.60 213.97 229.44 211.67 Z" />
</g>
<g id="#29292b9c">
<path fill="#29292b" opacity="0.61" d=" M 194.44 212.85 C 196.52 216.23 197.33 220.22 199.16 223.73 C 199.75 223.65 200.93 223.48 201.52 223.39 C 201.31 223.72 200.89 224.39 200.68 224.72 C 200.25 224.84 199.38 225.08 198.95 225.20 C 198.52 224.14 198.09 223.07 197.66 222.01 C 197.18 221.85 196.22 221.53 195.74 221.36 C 195.71 220.60 195.67 219.83 195.62 219.07 C 195.57 218.75 195.47 218.09 195.41 217.76 C 195.30 217.35 195.08 216.52 194.97 216.10 C 194.75 215.02 194.57 213.94 194.44 212.85 Z" />
</g>
<g id="#121115fd">
<path fill="#121115" opacity="1.00" d=" M 222.31 214.18 C 224.08 214.64 222.28 216.67 221.10 216.09 C 219.36 215.61 221.16 213.64 222.31 214.18 Z" />
</g>
<g id="#131217fa">
<path fill="#131217" opacity="0.98" d=" M 350.86 214.98 C 351.88 214.01 352.64 214.09 353.13 215.21 C 353.61 217.11 350.93 217.48 350.49 215.74 L 350.86 214.98 Z" />
</g>
<g id="#07060bff">
<path fill="#07060b" opacity="1.00" d=" M 195.41 217.76 C 193.99 220.09 192.68 216.19 194.97 216.10 C 195.08 216.52 195.30 217.35 195.41 217.76 Z" />
</g>
<g id="#030207ff">
<path fill="#030207" opacity="1.00" d=" M 217.26 216.12 C 220.25 214.60 217.39 219.44 217.26 216.12 Z" />
</g>
<g id="#020203ff">
<path fill="#020203" opacity="1.00" d=" M 327.11 215.92 C 327.57 215.97 328.50 216.07 328.96 216.12 C 328.37 217.52 327.75 217.46 327.11 215.92 Z" />
</g>
<g id="#2b2b2c89">
<path fill="#2b2b2c" opacity="0.54" d=" M 401.83 216.85 C 403.67 218.33 403.39 220.87 403.54 222.97 C 403.50 231.72 405.86 240.36 404.65 249.12 C 404.61 245.57 404.16 242.05 403.51 238.57 C 403.20 235.88 402.92 233.18 402.77 230.48 C 403.20 225.91 402.30 221.38 401.83 216.85 Z" />
</g>
<g id="#31313289">
<path fill="#313132" opacity="0.54" d=" M 203.39 222.35 C 202.78 220.60 205.84 219.15 207.09 220.31 C 206.11 221.39 204.82 222.10 203.39 222.35 Z" />
</g>
<g id="#050508ff">
<path fill="#050508" opacity="1.00" d=" M 345.21 225.08 C 348.19 223.54 345.36 228.41 345.21 225.08 Z" />
</g>
<g id="#0a0a0dff">
<path fill="#0a0a0d" opacity="1.00" d=" M 402.31 242.05 C 401.53 238.20 401.30 234.21 402.77 230.48 C 402.92 233.18 403.20 235.88 403.51 238.57 C 403.12 239.73 402.72 240.89 402.31 242.05 Z" />
</g>
<g id="#48474cff">
<path fill="#48474c" opacity="1.00" d=" M 188.27 234.25 C 189.29 233.24 190.75 233.23 192.07 232.98 C 190.90 236.87 186.86 238.60 184.23 241.35 C 174.69 250.61 166.03 260.93 159.61 272.62 C 156.10 279.63 152.10 286.49 149.90 294.08 C 148.11 299.54 147.09 305.20 145.73 310.77 C 145.13 310.71 143.94 310.57 143.35 310.50 C 145.87 290.85 154.96 272.52 166.81 256.83 C 172.97 248.45 180.17 240.79 188.27 234.25 Z" />
<path fill="#48474c" opacity="1.00" d=" M 256.25 412.29 C 256.91 412.28 258.24 412.25 258.90 412.23 C 256.65 422.04 252.61 431.54 246.47 439.56 C 242.25 444.63 237.35 449.11 232.04 453.01 C 231.51 452.66 230.47 451.96 229.95 451.61 C 231.32 450.09 232.80 448.68 234.44 447.47 C 241.63 442.22 247.08 434.90 251.01 426.99 C 253.18 422.25 254.44 417.16 256.25 412.29 Z" />
</g>
<g id="#1e232bff">
<path fill="#1e232b" opacity="1.00" d=" M 141.69 240.53 C 144.48 243.14 143.14 247.22 143.19 250.56 C 142.72 249.88 141.77 248.51 141.29 247.83 C 141.08 245.39 141.35 242.94 141.69 240.53 Z" />
<path fill="#1e232b" opacity="1.00" d=" M 387.32 439.91 C 387.96 439.80 388.60 439.69 389.25 439.57 C 388.32 447.74 385.95 455.65 384.61 463.76 C 384.15 463.88 383.22 464.12 382.76 464.24 C 382.95 466.29 383.07 468.35 383.20 470.43 C 382.50 469.67 381.82 468.92 381.15 468.16 C 383.30 474.35 379.41 480.29 378.79 486.43 C 378.20 486.59 377.00 486.92 376.41 487.08 C 377.68 481.58 379.40 476.17 380.17 470.56 C 382.46 460.39 385.36 450.32 386.52 439.93 C 386.72 439.92 387.12 439.91 387.32 439.91 Z" />
</g>
<g id="#3f3f41b3">
<path fill="#3f3f41" opacity="0.70" d=" M 404.70 252.30 L 405.49 252.36 C 405.57 253.03 405.74 254.36 405.83 255.02 C 406.23 258.84 406.17 262.69 405.99 266.52 C 405.15 261.83 404.71 257.07 404.70 252.30 Z" />
</g>
<g id="#3e3e3fb3">
<path fill="#3e3e3f" opacity="0.70" d=" M 139.65 262.35 L 140.32 262.44 C 140.24 267.94 139.65 273.41 139.48 278.91 C 139.24 274.57 138.87 270.22 139.06 265.86 C 139.24 264.69 139.44 263.52 139.65 262.35 Z" />
</g>
<g id="#020203fe">
<path fill="#020203" opacity="1.00" d=" M 405.75 285.65 C 404.31 281.94 403.95 277.78 405.81 274.14 C 405.76 277.11 405.84 280.08 405.86 283.05 L 405.75 285.65 Z" />
</g>
<g id="#151518ff">
<path fill="#151518" opacity="1.00" d=" M 138.69 302.20 C 138.91 295.72 138.12 288.99 140.37 282.77 C 140.87 289.50 140.66 296.25 140.61 302.98 C 140.64 305.93 139.94 308.82 139.02 311.60 C 138.97 308.46 138.82 305.33 138.69 302.20 Z" />
</g>
<g id="#3f3e41f6">
<path fill="#3f3e41" opacity="0.96" d=" M 405.86 283.05 C 408.26 286.67 406.86 291.44 407.00 295.55 C 406.53 292.25 406.09 288.96 405.75 285.65 L 405.86 283.05 Z" />
</g>
<g id="#47474cff">
<path fill="#47474c" opacity="1.00" d=" M 193.89 304.00 C 193.21 302.58 195.59 300.97 196.03 302.96 C 196.60 304.21 196.82 305.59 197.08 306.94 C 199.05 320.27 201.14 333.60 202.60 347.00 C 203.90 357.88 200.25 368.45 198.64 379.09 C 207.27 382.96 215.19 388.23 223.66 392.46 C 234.92 398.47 247.50 401.44 260.01 403.51 C 276.75 406.11 293.70 402.55 309.70 397.69 C 323.32 393.86 334.33 384.39 347.35 379.16 C 345.68 372.95 344.66 366.61 343.55 360.29 C 342.10 352.01 343.32 343.58 344.54 335.35 C 345.89 325.20 347.31 315.05 349.01 304.95 C 348.96 303.39 350.95 300.55 352.00 303.05 C 349.57 319.30 346.71 335.55 345.48 351.95 C 346.09 360.42 347.69 368.83 349.63 377.09 C 350.16 380.73 353.43 382.79 355.66 385.37 C 359.68 389.97 363.78 394.60 366.79 399.96 C 367.83 401.91 368.90 404.12 368.43 406.40 C 366.56 407.38 366.09 404.74 365.34 403.61 C 362.26 396.51 356.69 390.98 351.77 385.16 C 350.34 383.89 348.81 381.36 346.60 382.52 C 336.85 386.84 327.99 392.94 318.32 397.43 C 303.90 403.01 288.57 406.59 273.08 407.13 C 262.46 407.18 251.89 405.38 241.74 402.33 C 233.74 400.34 225.92 397.49 218.93 393.06 C 211.67 389.59 205.17 384.16 197.22 382.36 C 191.24 387.39 186.37 393.64 182.05 400.13 C 180.33 402.41 180.28 406.17 177.20 407.15 C 177.27 405.65 177.08 404.08 177.70 402.67 C 180.29 396.40 184.96 391.39 189.30 386.32 C 192.03 383.21 195.88 380.59 196.35 376.13 C 198.49 365.47 201.48 354.54 199.48 343.62 C 197.96 330.36 195.88 317.18 193.89 304.00 Z" />
<path fill="#47474c" opacity="1.00" d=" M 286.38 360.27 C 286.98 360.27 288.18 360.27 288.78 360.26 C 287.21 370.24 284.91 380.75 278.70 388.95 C 278.14 388.34 277.58 387.73 277.02 387.13 C 282.09 378.99 284.41 369.55 286.38 360.27 Z" />
</g>
<g id="#31313189">
<path fill="#313131" opacity="0.54" d=" M 407.68 323.80 C 407.35 318.80 407.38 313.77 407.56 308.76 C 409.24 313.34 408.14 318.22 408.75 322.94 C 409.62 328.93 409.07 334.98 409.22 341.00 C 409.10 344.85 409.74 348.83 408.45 352.55 C 407.72 342.98 408.75 333.35 407.68 323.80 Z" />
</g>
<g id="#64594b6f">
<path fill="#64594b" opacity="0.44" d=" M 407.68 323.80 C 408.75 333.35 407.72 342.98 408.45 352.55 C 408.88 358.38 407.65 364.14 407.75 369.96 C 408.10 370.34 408.80 371.09 409.15 371.46 C 410.13 375.67 411.18 379.94 411.36 384.25 L 411.11 385.74 C 411.03 385.20 410.86 384.12 410.77 383.58 C 410.54 382.04 410.30 380.51 410.04 378.98 C 409.92 378.24 409.81 377.51 409.71 376.78 C 409.53 376.10 409.17 374.72 408.99 374.03 C 408.64 373.18 408.29 372.34 407.95 371.50 C 406.63 365.73 407.83 359.86 407.70 354.04 C 407.73 343.96 407.82 333.88 407.68 323.80 Z" />
<path fill="#64594b" opacity="0.44" d=" M 403.58 460.29 C 403.95 458.80 404.39 457.33 404.74 455.84 C 405.15 461.29 403.38 466.57 403.42 472.01 C 403.45 475.09 401.80 477.89 401.96 480.99 C 401.96 486.13 400.71 491.16 400.28 496.27 C 400.33 494.09 400.20 491.91 400.20 489.75 C 400.38 488.55 400.55 487.36 400.73 486.18 C 401.31 484.14 401.44 482.03 400.82 479.99 C 401.32 478.84 401.65 477.65 401.83 476.42 C 402.68 472.57 403.19 468.66 403.24 464.73 C 403.38 463.24 403.50 461.76 403.58 460.29 Z" />
<path fill="#64594b" opacity="0.44" d=" M 212.22 588.92 C 219.11 588.69 225.54 591.84 232.26 592.94 C 238.53 594.57 244.77 596.81 251.30 596.92 C 251.73 597.25 252.59 597.92 253.02 598.26 C 255.78 598.36 258.54 598.45 261.30 598.67 C 267.87 600.87 274.98 599.33 281.77 599.72 C 282.19 599.41 283.01 598.79 283.43 598.48 C 289.41 599.38 295.09 596.42 301.00 597.18 C 294.59 599.56 287.64 599.06 281.03 600.40 C 271.33 602.08 261.70 599.46 252.03 599.18 C 249.30 597.70 245.88 598.35 243.04 596.93 C 232.33 595.09 222.17 590.51 211.29 589.70 C 211.52 589.51 211.98 589.12 212.22 588.92 Z" />
</g>
<g id="#46474bff">
<path fill="#46474b" opacity="1.00" d=" M 381.19 337.38 C 382.41 337.26 382.88 337.83 382.59 339.09 C 379.87 359.26 380.46 379.73 381.82 400.00 C 381.93 403.50 383.13 407.03 382.41 410.53 C 381.25 410.68 380.26 410.33 380.30 409.00 C 377.99 396.49 378.35 383.70 378.04 371.04 C 378.38 360.93 377.90 350.75 379.58 340.73 C 379.84 339.51 380.09 338.14 381.19 337.38 Z" />
</g>
<g id="#49484dff">
<path fill="#49484d" opacity="1.00" d=" M 329.58 346.61 C 330.35 345.34 331.78 345.11 333.14 345.06 C 331.79 349.03 328.74 352.01 326.26 355.28 C 315.70 368.49 305.45 382.67 290.63 391.44 C 288.34 392.59 285.90 394.13 283.24 393.83 C 282.42 392.57 284.13 391.63 285.02 391.11 C 288.29 389.40 291.73 387.96 294.60 385.58 C 308.37 374.65 318.80 360.32 329.58 346.61 Z" />
</g>
<g id="#47484bff">
<path fill="#47484b" opacity="1.00" d=" M 255.03 360.13 C 255.62 360.23 256.80 360.43 257.38 360.53 C 259.09 368.57 260.86 376.80 264.95 384.02 C 265.59 385.42 266.70 386.81 266.48 388.45 C 263.56 388.82 262.30 385.02 261.09 382.95 C 258.36 375.59 255.20 368.10 255.03 360.13 Z" />
<path fill="#47484b" opacity="1.00" d=" M 224.65 403.39 C 228.10 403.30 231.11 405.00 233.83 406.96 C 230.74 405.84 227.66 404.70 224.65 403.39 Z" />
</g>
<g id="#101011ff">
<path fill="#101011" opacity="1.00" d=" M 138.17 371.44 C 139.61 371.32 139.50 373.83 138.69 374.55 C 137.27 374.65 137.34 372.14 138.17 371.44 Z" />
<path fill="#101011" opacity="1.00" d=" M 409.42 420.09 C 409.84 421.91 410.24 423.73 410.63 425.56 C 410.44 426.96 410.24 428.36 410.04 429.76 C 408.17 426.83 409.20 423.30 409.42 420.09 Z" />
</g>
<g id="#121114fb">
<path fill="#121114" opacity="1.00" d=" M 409.71 376.78 C 407.33 379.69 405.69 373.72 408.99 374.03 C 409.17 374.72 409.53 376.10 409.71 376.78 Z" />
</g>
<g id="#151517fb">
<path fill="#151517" opacity="1.00" d=" M 136.37 376.01 C 137.94 377.99 137.83 380.24 136.71 382.39 C 136.47 381.76 136.00 380.51 135.77 379.88 C 135.92 378.92 136.22 376.98 136.37 376.01 Z" />
<path fill="#151517" opacity="1.00" d=" M 151.36 524.78 C 154.33 526.29 154.01 529.71 152.48 532.14 C 152.00 529.69 151.63 527.25 151.36 524.78 Z" />
</g>
<g id="#0f0f10ff">
<path fill="#0f0f10" opacity="1.00" d=" M 409.39 387.99 C 409.19 384.99 408.35 381.73 410.04 378.98 C 410.30 380.51 410.54 382.04 410.77 383.58 C 410.33 385.05 409.87 386.52 409.39 387.99 Z" />
<path fill="#0f0f10" opacity="1.00" d=" M 218.93 420.92 L 220.28 420.45 C 226.09 420.99 231.93 420.96 237.73 420.50 L 239.07 420.85 L 239.34 422.26 C 232.50 422.98 225.43 423.02 218.61 422.22 L 218.93 420.92 Z" />
</g>
<g id="#141317f7">
<path fill="#141317" opacity="0.97" d=" M 410.39 414.98 C 410.33 407.41 409.48 399.71 411.14 392.25 C 412.43 398.34 412.08 404.59 411.93 410.77 C 411.45 412.18 410.92 413.58 410.39 414.98 Z" />
</g>
<g id="#010101ff">
<path fill="#010101" opacity="1.00" d=" M 194.71 399.51 C 201.90 398.49 209.24 398.75 216.45 399.36 C 214.72 400.11 212.81 400.01 210.98 400.09 C 205.56 400.23 200.05 400.71 194.71 399.51 Z" />
</g>
<g id="#ffffffff">
<path fill="#ffffff" opacity="1.00" d=" M 193.15 402.54 C 198.50 400.50 204.40 400.33 210.01 401.10 C 212.05 401.27 214.11 401.35 216.14 401.64 C 218.99 402.13 221.83 402.71 224.65 403.39 C 227.66 404.70 230.74 405.84 233.83 406.96 C 237.87 409.22 241.87 411.68 245.11 415.04 C 245.36 415.61 245.87 416.73 246.13 417.30 C 233.95 421.50 220.75 420.01 208.55 416.76 C 202.42 414.27 196.34 410.41 193.44 404.23 C 193.37 403.80 193.23 402.96 193.15 402.54 Z" />
<path fill="#ffffff" opacity="1.00" d=" M 300.34 415.04 C 313.10 403.05 331.53 399.64 348.49 400.87 C 349.87 401.46 351.22 402.13 352.57 402.81 C 350.27 410.40 342.67 414.54 335.78 417.29 C 333.03 418.19 330.22 418.90 327.42 419.62 C 321.35 420.97 315.07 420.46 308.92 420.27 C 305.79 418.96 301.95 419.24 299.20 417.31 C 299.48 416.74 300.06 415.61 300.34 415.04 Z" />
</g>
<g id="#48484dff">
<path fill="#48484d" opacity="1.00" d=" M 287.04 412.22 C 287.66 412.26 288.90 412.35 289.52 412.39 C 292.54 423.40 297.20 434.37 305.59 442.38 C 308.66 445.73 312.53 448.18 315.78 451.34 C 315.26 451.98 314.73 452.62 314.18 453.24 C 304.95 446.38 296.37 438.02 291.80 427.27 C 289.91 422.36 287.85 417.45 287.04 412.22 Z" />
</g>
<g id="#a2a1a3ff">
<path fill="#a2a1a3" opacity="1.00" d=" M 245.11 415.04 C 245.85 415.69 246.62 416.32 247.40 416.94 C 246.05 417.99 244.62 419.02 242.91 419.33 C 242.27 419.48 241.00 419.76 240.36 419.91 C 239.70 420.06 238.39 420.35 237.73 420.50 C 231.93 420.96 226.09 420.99 220.28 420.45 C 219.62 420.31 218.30 420.02 217.64 419.88 C 214.53 419.09 211.40 418.27 208.55 416.76 C 220.75 420.01 233.95 421.50 246.13 417.30 C 245.87 416.73 245.36 415.61 245.11 415.04 Z" />
</g>
<g id="#21212265">
<path fill="#212122" opacity="0.40" d=" M 412.09 414.52 L 412.16 415.41 C 413.54 421.62 410.85 427.46 410.47 433.58 C 409.53 437.30 408.82 441.32 406.47 444.45 C 406.70 443.31 406.89 442.17 407.10 441.04 C 407.21 440.60 407.43 439.71 407.54 439.27 C 407.86 438.94 408.48 438.28 408.79 437.96 C 408.84 437.22 408.94 435.75 408.98 435.02 C 409.13 434.37 409.43 433.08 409.58 432.43 L 409.75 431.51 C 409.83 431.08 409.97 430.20 410.04 429.76 C 410.24 428.36 410.44 426.96 410.63 425.56 C 411.61 421.97 412.13 418.25 412.09 414.52 Z" />
</g>
<g id="#151517ff">
<path fill="#151517" opacity="1.00" d=" M 327.42 419.62 C 330.22 418.90 333.03 418.19 335.78 417.29 C 336.18 417.70 336.97 418.53 337.36 418.94 C 334.12 421.36 329.73 420.29 326.44 422.46 C 317.40 423.06 307.88 423.66 299.43 419.92 C 301.78 419.91 304.52 419.18 306.51 420.86 C 311.33 420.80 316.16 420.53 320.98 420.75 C 323.16 420.74 325.63 421.26 327.42 419.62 Z" />
</g>
<g id="#040405ff">
<path fill="#040405" opacity="1.00" d=" M 240.36 419.91 C 241.00 419.76 242.27 419.48 242.91 419.33 C 243.32 419.61 244.15 420.16 244.56 420.44 C 243.50 421.28 240.81 421.28 240.36 419.91 Z" />
<path fill="#040405" opacity="1.00" d=" M 349.16 581.06 C 349.62 581.29 350.54 581.76 351.00 581.99 L 350.24 582.46 C 349.97 582.11 349.43 581.41 349.16 581.06 Z" />
</g>
<g id="#131216fb">
<path fill="#131216" opacity="1.00" d=" M 135.62 428.17 C 136.04 427.83 136.89 427.14 137.31 426.80 C 137.48 428.80 138.02 431.01 136.53 432.68 C 136.13 431.19 135.83 429.69 135.62 428.17 Z" />
</g>
<g id="#141417fb">
<path fill="#141417" opacity="1.00" d=" M 408.98 435.02 C 405.50 435.28 407.28 428.99 409.58 432.43 C 409.43 433.08 409.13 434.37 408.98 435.02 Z" />
</g>
<g id="#060421ff">
<path fill="#060421" opacity="1.00" d=" M 157.18 440.29 C 159.21 439.24 161.40 438.55 163.59 437.93 C 163.64 438.65 163.73 440.10 163.77 440.83 C 162.59 440.45 161.42 439.56 160.17 440.21 C 158.46 443.08 160.34 446.57 160.68 449.64 C 160.40 451.52 159.97 453.37 159.55 455.23 C 158.91 452.51 159.17 449.74 159.91 447.08 C 159.38 447.24 158.32 447.55 157.79 447.71 C 157.55 445.24 157.34 442.76 157.18 440.29 Z" />
<path fill="#060421" opacity="1.00" d=" M 346.67 447.67 C 351.58 446.59 356.70 444.29 361.72 446.27 C 361.56 446.48 361.23 446.91 361.07 447.12 C 358.35 447.24 355.64 447.54 353.03 448.32 C 350.90 448.12 348.78 447.91 346.67 447.67 Z" />
<path fill="#060421" opacity="1.00" d=" M 339.21 448.72 C 342.28 448.15 345.38 448.51 348.38 449.27 C 345.71 449.75 343.06 450.34 340.39 450.86 C 340.10 450.32 339.51 449.25 339.21 448.72 Z" />
<path fill="#060421" opacity="1.00" d=" M 320.76 452.66 C 322.44 452.38 323.91 453.47 325.42 454.04 C 319.56 455.01 313.67 455.94 308.00 457.81 C 305.09 458.69 302.18 459.61 299.28 460.54 C 298.43 460.22 296.73 459.57 295.88 459.25 C 304.22 457.21 312.21 453.81 320.76 452.66 Z" />
<path fill="#060421" opacity="1.00" d=" M 359.81 537.70 C 360.24 538.06 361.10 538.79 361.53 539.15 C 356.79 550.01 351.46 560.62 345.72 570.99 C 344.24 573.41 343.13 576.60 339.88 577.00 C 347.71 564.55 354.23 551.30 359.81 537.70 Z" />
</g>
<g id="#090909ff">
<path fill="#090909" opacity="1.00" d=" M 407.10 441.04 C 405.02 440.49 406.01 436.82 407.54 439.27 C 407.43 439.71 407.21 440.60 407.10 441.04 Z" />
</g>
<g id="#e7cfabff">
<path fill="#e7cfab" opacity="1.00" d=" M 160.17 440.21 C 161.42 439.56 162.59 440.45 163.77 440.83 C 167.14 442.33 170.71 443.27 174.30 444.05 C 176.43 444.52 178.55 445.09 180.68 445.61 C 182.67 446.09 184.64 446.64 186.64 447.15 C 197.89 450.27 209.43 452.32 220.90 454.47 C 223.61 454.83 226.31 455.26 229.04 455.52 C 232.94 456.36 236.70 457.68 240.54 458.74 C 242.00 459.21 243.46 459.68 244.91 460.21 C 245.36 460.33 246.24 460.56 246.69 460.68 L 247.54 460.90 C 250.98 461.94 254.43 462.95 257.85 464.05 C 259.92 464.72 262.02 465.34 264.10 466.00 C 264.79 466.23 266.17 466.70 266.85 466.93 C 269.51 467.78 272.35 469.09 275.16 468.10 C 283.19 465.54 291.29 463.20 299.28 460.54 C 302.18 459.61 305.09 458.69 308.00 457.81 C 313.67 455.94 319.56 455.01 325.42 454.04 L 325.89 453.92 C 330.47 452.74 335.17 452.15 339.76 451.02 L 340.39 450.86 C 343.06 450.34 345.71 449.75 348.38 449.27 C 349.94 449.00 351.48 448.67 353.03 448.32 C 355.64 447.54 358.35 447.24 361.07 447.12 C 361.23 446.91 361.56 446.48 361.72 446.27 C 363.17 445.95 364.66 445.68 366.12 445.36 C 367.65 445.03 369.15 444.62 370.68 444.27 C 375.64 443.29 380.36 441.48 385.15 439.93 L 386.52 439.93 C 385.36 450.32 382.46 460.39 380.17 470.56 C 377.29 477.71 376.03 485.36 373.79 492.72 C 372.25 498.59 370.19 504.34 369.31 510.36 C 369.22 510.67 369.06 511.29 368.98 511.60 C 366.33 520.44 363.22 529.13 359.81 537.70 C 354.23 551.30 347.71 564.55 339.88 577.00 C 338.90 578.27 338.00 579.58 337.10 580.91 C 335.39 583.40 333.48 585.75 331.44 587.99 C 323.71 590.24 316.09 593.01 308.12 594.32 C 307.64 594.56 306.69 595.04 306.21 595.28 C 304.67 595.62 302.66 595.12 301.61 596.60 L 301.04 597.19 L 301.00 597.18 C 295.09 596.42 289.41 599.38 283.43 598.48 C 283.01 598.79 282.19 599.41 281.77 599.72 C 274.98 599.33 267.87 600.87 261.30 598.67 C 258.54 598.45 255.78 598.36 253.02 598.26 C 252.59 597.92 251.73 597.25 251.30 596.92 C 244.77 596.81 238.53 594.57 232.26 592.94 C 225.54 591.84 219.11 588.69 212.22 588.92 C 212.56 588.60 213.25 587.95 213.59 587.63 C 204.72 576.29 197.85 563.59 191.66 550.63 C 186.76 540.33 182.49 529.73 178.88 518.91 C 178.81 518.66 178.67 518.15 178.60 517.90 C 176.68 511.41 174.63 504.96 172.95 498.40 L 172.79 497.68 C 171.56 492.93 170.21 488.22 168.91 483.49 C 167.29 476.85 165.56 470.24 163.77 463.65 C 163.66 463.22 163.45 462.36 163.34 461.94 L 163.11 461.15 L 162.95 460.39 C 162.64 459.02 162.35 457.64 162.09 456.27 C 161.65 454.05 161.17 451.84 160.68 449.64 C 160.34 446.57 158.46 443.08 160.17 440.21 Z" />
</g>
<g id="#040614ff">
<path fill="#040614" opacity="1.00" d=" M 170.33 441.30 C 171.53 440.41 172.27 440.63 172.55 441.96 C 171.35 442.84 170.61 442.62 170.33 441.30 Z" />
</g>
<g id="#0f141fff">
<path fill="#0f141f" opacity="1.00" d=" M 175.81 442.47 C 179.37 442.63 182.79 444.07 186.31 444.65 C 184.44 445.04 182.57 445.32 180.68 445.61 C 178.55 445.09 176.43 444.52 174.30 444.05 C 174.68 443.65 175.43 442.87 175.81 442.47 Z" />
</g>
<g id="#0f111dff">
<path fill="#0f111d" opacity="1.00" d=" M 359.68 444.68 C 362.90 443.90 366.08 442.82 369.37 442.34 C 369.70 442.82 370.35 443.79 370.68 444.27 C 369.15 444.62 367.65 445.03 366.12 445.36 C 363.96 445.23 361.82 444.97 359.68 444.68 Z" />
</g>
<g id="#12141fff">
<path fill="#12141f" opacity="1.00" d=" M 187.32 445.16 C 188.67 445.23 190.01 445.29 191.35 445.43 C 191.60 445.95 192.09 446.98 192.33 447.50 C 190.82 447.38 189.31 447.30 187.80 447.24 C 187.68 446.72 187.44 445.68 187.32 445.16 Z" />
</g>
<g id="#2a2a2b82">
<path fill="#2a2a2b" opacity="0.51" d=" M 140.05 446.19 C 140.79 448.52 141.23 450.95 141.59 453.37 C 141.80 455.76 142.04 458.16 142.18 460.56 C 141.47 464.77 143.27 468.78 143.42 472.95 C 143.55 475.34 143.90 477.72 144.33 480.09 C 144.57 481.65 144.90 483.21 145.20 484.79 C 144.82 488.27 145.48 491.72 145.93 495.17 C 144.07 493.25 144.46 490.45 144.15 488.04 C 143.91 483.95 142.79 479.94 143.02 475.83 C 143.39 472.45 141.39 469.43 141.44 466.08 C 141.20 459.43 139.71 452.86 140.05 446.19 Z" />
</g>
<g id="#7f7364ff">
<path fill="#7f7364" opacity="1.00" d=" M 186.64 447.15 L 187.80 447.24 C 189.31 447.30 190.82 447.38 192.33 447.50 C 192.55 447.56 192.99 447.67 193.21 447.73 C 194.44 448.21 195.72 448.55 197.03 448.75 C 197.98 448.89 198.93 449.05 199.88 449.24 C 201.96 449.69 204.05 450.14 206.16 450.54 C 206.20 450.55 206.30 450.57 206.34 450.58 C 211.03 451.49 215.67 452.72 220.43 453.20 C 220.55 453.52 220.78 454.15 220.90 454.47 C 209.43 452.32 197.89 450.27 186.64 447.15 Z" />
</g>
<g id="#040918ff">
<path fill="#040918" opacity="1.00" d=" M 193.21 447.73 C 194.93 446.99 196.90 446.51 198.69 447.37 C 198.27 447.71 197.44 448.40 197.03 448.75 C 195.72 448.55 194.44 448.21 193.21 447.73 Z" />
</g>
<g id="#141722ff">
<path fill="#141722" opacity="1.00" d=" M 199.88 449.24 C 201.60 448.41 203.48 448.01 205.40 448.12 C 205.59 448.73 205.97 449.93 206.16 450.54 C 204.05 450.14 201.96 449.69 199.88 449.24 Z" />
</g>
<g id="#09080aff">
<path fill="#09080a" opacity="1.00" d=" M 141.59 453.37 C 141.93 451.86 142.31 450.38 142.71 448.90 C 143.35 452.78 143.83 456.85 142.18 460.56 C 142.04 458.16 141.80 455.76 141.59 453.37 Z" />
</g>
<g id="#11141fff">
<path fill="#11141f" opacity="1.00" d=" M 206.34 450.58 C 208.93 449.87 211.60 449.48 214.29 449.80 C 215.66 450.21 217.03 450.58 218.41 450.96 C 219.18 451.16 219.96 451.37 220.73 451.58 C 220.66 451.99 220.50 452.80 220.43 453.20 C 215.67 452.72 211.03 451.49 206.34 450.58 Z" />
<path fill="#11141f" opacity="1.00" d=" M 272.97 465.71 C 276.16 465.61 279.10 464.07 282.32 464.19 C 282.08 464.50 281.58 465.12 281.33 465.43 C 277.15 466.36 272.95 467.92 268.61 466.84 C 269.75 465.61 271.48 465.92 272.97 465.71 Z" />
</g>
<g id="#13131eff">
<path fill="#13131e" opacity="1.00" d=" M 159.92 460.66 C 160.19 458.97 160.31 457.09 162.09 456.27 C 162.35 457.64 162.64 459.02 162.95 460.39 C 162.19 460.46 160.67 460.59 159.92 460.66 Z" />
</g>
<g id="#121324ff">
<path fill="#121324" opacity="1.00" d=" M 244.91 460.21 C 244.54 457.81 247.67 457.53 248.88 459.06 C 248.33 459.46 247.24 460.28 246.69 460.68 C 246.24 460.56 245.36 460.33 244.91 460.21 Z" />
</g>
<g id="#050506ff">
<path fill="#050506" opacity="1.00" d=" M 402.46 459.63 C 402.74 459.79 403.30 460.12 403.58 460.29 C 403.50 461.76 403.38 463.24 403.24 464.73 C 401.66 463.51 401.51 461.28 402.46 459.63 Z" />
</g>
<g id="#050813ff">
<path fill="#050813" opacity="1.00" d=" M 292.46 460.33 C 293.65 459.40 294.36 459.60 294.62 460.95 C 293.43 461.87 292.71 461.66 292.46 460.33 Z" />
</g>
<g id="#030615ff">
<path fill="#030615" opacity="1.00" d=" M 162.43 466.69 C 161.56 465.05 161.98 463.14 163.34 461.94 C 163.45 462.36 163.66 463.22 163.77 463.65 C 163.59 464.77 163.15 465.78 162.43 466.69 Z" />
</g>
<g id="#040513ff">
<path fill="#040513" opacity="1.00" d=" M 261.19 463.17 C 264.20 461.67 261.31 466.49 261.19 463.17 Z" />
</g>
<g id="#030416ff">
<path fill="#030416" opacity="1.00" d=" M 283.41 463.14 C 284.62 462.24 285.35 462.45 285.59 463.78 C 284.37 464.67 283.64 464.46 283.41 463.14 Z" />
</g>
<g id="#131521ff">
<path fill="#131521" opacity="1.00" d=" M 263.68 463.99 C 265.09 464.08 266.50 464.18 267.92 464.28 C 267.65 464.94 267.12 466.27 266.85 466.93 C 266.17 466.70 264.79 466.23 264.10 466.00 C 264.00 465.50 263.78 464.50 263.68 463.99 Z" />
</g>
<g id="#887b6bff">
<path fill="#887b6b" opacity="1.00" d=" M 373.79 492.72 C 376.03 485.36 377.29 477.71 380.17 470.56 C 379.40 476.17 377.68 481.58 376.41 487.08 C 376.34 487.33 376.20 487.83 376.13 488.08 C 375.94 488.76 375.56 490.11 375.37 490.79 C 375.23 491.29 374.94 492.29 374.80 492.80 C 374.29 494.09 373.62 495.48 374.03 496.91 L 374.05 497.02 C 372.22 501.38 371.25 506.05 369.31 510.36 C 370.19 504.34 372.25 498.59 373.79 492.72 Z" />
</g>
<g id="#0d0d0fff">
<path fill="#0d0d0f" opacity="1.00" d=" M 400.58 474.40 C 400.89 474.91 401.52 475.91 401.83 476.42 C 401.65 477.65 401.32 478.84 400.82 479.99 C 400.67 479.83 400.36 479.51 400.20 479.35 C 400.01 477.69 400.18 476.01 400.58 474.40 Z" />
</g>
<g id="#11121eff">
<path fill="#11121e" opacity="1.00" d=" M 166.20 480.33 C 168.14 479.59 168.94 483.68 166.98 484.03 C 165.48 483.64 165.27 481.34 166.20 480.33 Z" />
</g>
<g id="#29272cff">
<path fill="#29272c" opacity="1.00" d=" M 168.91 483.49 C 170.21 488.22 171.56 492.93 172.79 497.68 C 172.43 498.35 171.73 499.70 171.38 500.37 C 169.32 495.13 166.52 489.05 168.91 483.49 Z" />
</g>
<g id="#060606ff">
<path fill="#060606" opacity="1.00" d=" M 399.33 484.43 C 399.68 484.87 400.38 485.74 400.73 486.18 C 400.55 487.36 400.38 488.55 400.20 489.75 C 398.64 488.40 398.70 486.21 399.33 484.43 Z" />
</g>
<g id="#030917ff">
<path fill="#030917" opacity="1.00" d=" M 376.13 488.08 C 377.83 488.93 377.48 492.71 375.37 490.79 C 375.56 490.11 375.94 488.76 376.13 488.08 Z" />
</g>
<g id="#131621ff">
<path fill="#131621" opacity="1.00" d=" M 374.80 492.80 C 376.91 493.66 376.78 497.63 374.03 496.91 C 373.62 495.48 374.29 494.09 374.80 492.80 Z" />
<path fill="#131621" opacity="1.00" d=" M 369.31 510.36 C 371.25 506.05 372.22 501.38 374.05 497.02 C 375.30 502.51 372.13 507.64 370.96 512.86 C 370.46 512.55 369.47 511.92 368.98 511.60 C 369.06 511.29 369.22 510.67 369.31 510.36 Z" />
</g>
<g id="#121213a1">
<path fill="#121213" opacity="0.63" d=" M 398.71 506.00 C 398.24 502.71 397.67 499.42 397.47 496.10 C 398.08 497.15 398.69 498.21 399.27 499.30 C 399.42 501.54 399.35 503.84 398.71 506.00 Z" />
</g>
<g id="#2c2c2d84">
<path fill="#2c2c2d" opacity="0.52" d=" M 146.29 497.75 C 146.61 498.87 146.99 500.00 147.33 501.14 C 147.52 502.70 147.82 504.26 148.13 505.82 C 148.21 506.76 148.31 507.71 148.42 508.67 C 148.68 511.38 148.93 514.10 149.37 516.81 C 149.67 517.57 150.06 518.30 150.42 519.06 C 150.40 520.38 150.64 521.67 151.14 522.93 C 151.19 523.40 151.30 524.32 151.36 524.78 C 151.63 527.25 152.00 529.69 152.48 532.14 C 152.65 533.16 152.94 534.16 153.20 535.17 C 153.44 535.86 153.90 537.23 154.13 537.91 C 153.92 539.04 153.75 540.17 153.60 541.32 C 150.72 530.74 149.42 519.82 147.19 509.10 C 146.96 505.32 145.44 501.53 146.29 497.75 Z" />
</g>
<g id="#171619f6">
<path fill="#171619" opacity="0.96" d=" M 148.42 508.67 C 151.53 510.31 151.54 514.39 149.37 516.81 C 148.93 514.10 148.68 511.38 148.42 508.67 Z" />
</g>
<g id="#030314ff">
<path fill="#030314" opacity="1.00" d=" M 369.00 515.21 C 372.31 515.43 367.39 518.16 369.00 515.21 Z" />
</g>
<g id="#141b2aff">
<path fill="#141b2a" opacity="1.00" d=" M 178.88 518.91 C 182.49 529.73 186.76 540.33 191.66 550.63 C 191.28 551.12 190.53 552.09 190.15 552.58 C 187.06 546.55 184.59 540.24 181.96 534.00 C 181.07 532.14 181.20 530.07 181.26 528.09 C 180.77 528.02 179.79 527.87 179.31 527.80 C 178.16 524.93 177.82 521.87 178.88 518.91 Z" />
</g>
<g id="#2d2d2e86">
<path fill="#2d2d2e" opacity="0.53" d=" M 394.43 522.96 C 395.00 522.24 395.58 521.52 396.17 520.82 C 395.42 527.67 393.60 534.32 392.45 541.11 C 391.10 546.56 390.50 552.23 388.39 557.48 L 387.84 556.36 C 387.91 556.04 388.06 555.41 388.13 555.10 C 388.53 553.73 388.85 552.35 389.08 550.96 C 389.17 550.66 389.34 550.06 389.42 549.76 C 389.86 548.23 390.26 546.69 390.61 545.14 C 390.82 543.78 390.93 542.41 391.07 541.05 C 391.51 540.03 391.85 538.98 392.11 537.92 C 392.32 537.01 392.52 536.11 392.71 535.20 C 393.07 533.05 393.35 530.89 393.60 528.73 C 393.66 528.28 393.78 527.37 393.85 526.91 C 394.35 525.62 394.54 524.30 394.43 522.96 Z" />
</g>
<g id="#070718ff">
<path fill="#070718" opacity="1.00" d=" M 366.02 524.14 C 369.34 524.31 364.45 527.11 366.02 524.14 Z" />
</g>
<g id="#131315fa">
<path fill="#131315" opacity="0.98" d=" M 390.94 533.70 C 391.38 531.83 391.87 529.86 393.60 528.73 C 393.35 530.89 393.07 533.05 392.71 535.20 C 392.26 534.83 391.38 534.08 390.94 533.70 Z" />
</g>
<g id="#090c1cff">
<path fill="#090c1c" opacity="1.00" d=" M 363.06 532.11 C 366.37 532.35 361.43 535.05 363.06 532.11 Z" />
</g>
<g id="#0c0c0eff">
<path fill="#0c0c0e" opacity="1.00" d=" M 153.20 535.17 C 153.58 534.70 154.33 533.75 154.71 533.28 C 155.42 534.82 154.87 536.48 154.13 537.91 C 153.90 537.23 153.44 535.86 153.20 535.17 Z" />
</g>
<g id="#0c0c0df8">
<path fill="#0c0c0d" opacity="0.97" d=" M 390.13 537.25 C 390.63 537.41 391.62 537.75 392.11 537.92 C 391.85 538.98 391.51 540.03 391.07 541.05 C 390.35 539.93 389.59 538.59 390.13 537.25 Z" />
</g>
<g id="#141417ff">
<path fill="#141417" opacity="1.00" d=" M 155.48 539.98 C 155.99 541.56 156.47 543.15 156.94 544.76 C 156.44 545.07 155.45 545.69 154.95 546.00 C 155.07 543.98 155.24 541.97 155.48 539.98 Z" />
</g>
<g id="#131317ff">
<path fill="#131317" opacity="1.00" d=" M 389.03 542.96 C 389.43 543.50 390.22 544.60 390.61 545.14 C 390.26 546.69 389.86 548.23 389.42 549.76 C 387.71 547.78 388.68 545.22 389.03 542.96 Z" />
</g>
<g id="#141416f2">
<path fill="#141416" opacity="0.95" d=" M 155.99 550.69 C 156.29 549.23 156.75 547.83 157.69 546.67 C 157.81 548.43 157.87 550.21 157.93 552.00 C 157.45 551.67 156.47 551.01 155.99 550.69 Z" />
</g>
<g id="#070707ff">
<path fill="#070707" opacity="1.00" d=" M 386.00 556.29 C 389.32 556.51 384.38 559.23 386.00 556.29 Z" />
</g>
<g id="#171718fe">
<path fill="#171718" opacity="1.00" d=" M 376.58 567.43 C 379.52 564.45 382.32 561.30 385.55 558.64 C 383.93 562.52 380.64 566.11 376.58 567.43 Z" />
</g>
<g id="#0a090dff">
<path fill="#0a090d" opacity="1.00" d=" M 368.24 572.10 C 371.25 570.61 368.30 575.42 368.24 572.10 Z" />
</g>
<g id="#171619fe">
<path fill="#171619" opacity="1.00" d=" M 352.32 579.35 C 353.04 578.20 355.53 579.11 354.28 580.41 C 353.55 581.53 351.09 580.64 352.32 579.35 Z" />
</g>
<g id="#08080cff">
<path fill="#08080c" opacity="1.00" d=" M 194.40 581.12 C 195.61 580.21 196.31 580.43 196.52 581.79 C 195.31 582.68 194.61 582.46 194.40 581.12 Z" />
</g>
<g id="#1a1a21fe">
<path fill="#1a1a21" opacity="1.00" d=" M 337.10 580.91 C 337.90 582.17 337.52 583.62 337.41 584.99 C 338.09 585.12 339.46 585.37 340.14 585.49 C 337.94 586.55 335.67 587.50 333.26 587.95 C 332.80 587.96 331.90 587.98 331.44 587.99 C 333.48 585.75 335.39 583.40 337.10 580.91 Z" />
</g>
<g id="#60564774">
<path fill="#605647" opacity="0.45" d=" M 308.12 594.32 C 316.09 593.01 323.71 590.24 331.44 587.99 C 331.90 587.98 332.80 587.96 333.26 587.95 C 332.02 588.44 330.82 589.00 329.62 589.57 C 326.02 591.38 322.01 592.04 318.16 593.10 C 312.70 594.47 307.31 596.55 301.61 596.60 C 302.66 595.12 304.67 595.62 306.21 595.28 C 306.69 595.04 307.64 594.56 308.12 594.32 Z" />
</g>
</svg>
