<?xml version="1.0" encoding="UTF-8" ?>
<!DOCTYPE svg PUBLIC "-//W3C//DTD SVG 1.1//EN" "http://www.w3.org/Graphics/SVG/1.1/DTD/svg11.dtd">
<svg width="546pt" height="768pt" viewBox="0 0 546 768" version="1.1" xmlns="http://www.w3.org/2000/svg">
<g id="#3b6e35ff">
<path fill="#3b6e35" opacity="1.00" d=" M 254.27 198.08 C 264.69 189.67 274.05 180.04 283.70 170.78 C 282.30 176.54 280.27 182.15 279.17 187.98 C 287.46 185.06 295.01 180.13 301.72 174.51 C 302.25 174.44 303.32 174.28 303.86 174.20 C 302.22 177.29 301.07 180.59 299.91 183.87 C 299.56 186.16 299.07 188.43 298.51 190.67 C 301.07 190.57 303.60 190.04 305.86 188.80 C 308.29 188.59 310.72 188.44 313.16 188.39 C 311.23 190.89 308.97 193.19 307.49 196.02 C 307.99 197.41 309.70 197.65 310.80 198.45 C 314.75 200.26 315.95 204.76 317.63 208.38 C 320.74 209.70 323.69 211.62 327.08 212.16 C 330.30 211.03 333.26 209.29 336.37 207.93 C 338.27 207.11 340.20 206.11 342.34 206.50 C 338.99 209.27 335.72 212.22 333.35 215.91 C 339.87 218.02 343.93 223.85 349.43 227.56 C 361.65 236.29 375.24 242.88 387.57 251.45 C 389.60 252.81 391.47 254.54 393.81 255.39 C 399.24 255.63 404.96 256.27 410.15 254.28 C 409.02 256.49 407.63 258.55 406.10 260.50 C 410.01 262.21 414.18 260.50 418.19 260.26 C 414.77 263.01 410.81 264.96 406.92 266.96 C 410.01 271.46 414.49 274.76 417.64 279.22 C 420.74 283.19 423.94 287.58 428.86 289.38 C 434.34 291.66 439.74 294.14 445.36 296.06 C 442.14 297.04 438.84 297.65 435.54 298.19 C 437.80 300.97 441.49 301.57 444.67 302.79 C 444.70 303.32 444.75 304.38 444.78 304.90 C 440.08 306.40 435.80 309.01 430.93 310.00 C 430.50 310.47 429.63 311.41 429.19 311.87 C 431.33 312.80 433.82 313.36 435.33 315.29 C 433.80 315.45 432.27 315.60 430.74 315.73 C 430.59 316.24 430.29 317.27 430.14 317.79 C 432.18 319.31 434.39 320.83 435.54 323.19 C 434.25 324.34 432.47 324.17 430.88 324.41 C 430.47 324.69 429.64 325.24 429.23 325.52 C 428.39 325.56 426.71 325.65 425.87 325.69 C 426.81 330.01 430.97 332.37 433.30 335.88 C 429.81 335.43 426.46 334.16 422.90 334.30 C 421.42 340.14 422.31 346.25 420.89 352.05 C 420.53 356.26 420.29 360.49 419.17 364.59 C 421.92 364.87 424.68 364.82 427.44 364.83 C 427.15 365.40 426.55 366.56 426.26 367.13 C 424.27 368.24 422.29 369.37 420.35 370.55 C 417.04 372.63 413.45 374.20 410.09 376.18 C 408.49 376.86 408.50 378.77 407.94 380.17 C 408.92 380.34 410.89 380.68 411.88 380.85 C 410.17 381.71 408.39 382.37 406.58 382.92 C 406.55 383.36 406.50 384.24 406.47 384.68 C 409.06 384.59 411.66 384.46 414.26 384.43 C 411.40 386.97 408.27 389.17 404.88 390.93 C 403.90 396.62 403.23 402.35 402.19 408.03 C 399.97 401.66 397.39 395.40 395.70 388.86 C 393.60 380.11 387.96 372.89 383.62 365.18 C 380.27 359.24 376.13 353.13 376.31 346.02 C 376.06 335.02 380.65 324.75 382.33 314.03 C 383.63 305.62 380.48 297.42 377.07 289.89 C 372.03 279.34 364.87 269.34 354.82 263.08 C 346.07 257.51 334.48 256.76 325.12 261.26 C 313.75 266.55 305.01 276.89 300.96 288.69 C 299.90 291.65 299.03 294.67 298.22 297.71 C 300.57 299.15 303.84 300.43 304.49 303.44 C 305.12 309.37 303.99 315.40 304.99 321.31 C 305.94 326.51 309.49 331.19 308.42 336.69 C 306.44 332.88 304.77 328.92 303.02 325.00 C 300.35 319.05 302.54 312.39 301.17 306.22 C 300.53 303.75 298.10 303.18 295.88 303.06 C 293.53 308.28 291.01 313.80 286.31 317.35 C 281.16 321.38 273.03 319.84 269.25 314.62 C 261.30 304.52 263.18 290.37 256.20 279.80 C 249.94 269.76 240.92 261.03 229.83 256.57 C 222.58 254.36 213.98 254.17 207.45 258.52 C 199.92 263.14 194.36 270.18 189.42 277.36 C 184.33 285.07 180.05 293.38 177.32 302.23 C 174.49 311.04 177.23 320.28 178.55 329.10 C 179.55 336.32 181.89 343.89 179.23 351.04 C 175.30 362.96 169.07 373.96 164.67 385.71 C 162.01 393.75 160.40 402.33 155.81 409.58 C 155.20 404.03 155.82 398.39 154.60 392.90 C 149.20 396.91 145.27 402.40 141.52 407.90 C 143.96 400.73 148.96 394.80 154.67 389.97 C 154.33 386.63 153.87 383.30 153.42 379.97 C 149.44 379.79 145.46 379.65 141.50 379.30 C 145.16 377.95 148.68 376.25 151.94 374.10 C 149.83 371.66 147.68 369.13 144.75 367.63 C 142.82 366.48 140.45 365.54 138.28 366.85 C 136.55 357.83 134.03 349.00 132.46 339.95 C 132.25 338.39 131.32 337.10 130.37 335.90 C 129.45 335.03 128.48 334.23 127.52 333.41 C 127.50 333.06 127.45 332.35 127.42 332.00 C 128.82 331.13 130.15 330.18 131.46 329.19 C 131.08 328.59 130.33 327.40 129.95 326.80 C 125.00 327.45 120.04 326.85 115.10 326.44 C 115.12 325.96 115.18 324.99 115.21 324.50 C 117.84 322.81 120.29 320.86 122.58 318.73 C 116.38 316.74 109.74 317.16 103.55 315.19 C 104.73 313.96 106.42 313.77 108.00 313.44 C 111.48 311.93 115.10 310.73 118.53 309.10 C 118.82 308.59 119.42 307.57 119.71 307.05 C 115.24 304.98 110.15 306.03 105.66 304.37 C 109.10 302.94 112.54 301.48 115.83 299.73 C 116.70 299.53 118.44 299.13 119.31 298.94 C 119.37 296.04 116.46 296.70 114.45 296.50 L 113.89 295.40 C 122.04 291.84 129.45 286.82 136.87 281.98 C 140.76 279.57 143.57 275.93 146.67 272.65 C 152.49 266.42 158.61 260.41 165.57 255.44 C 167.35 253.92 169.92 253.03 170.62 250.57 C 166.86 248.95 162.88 247.44 159.97 244.45 C 162.11 245.03 164.28 245.63 166.53 245.52 C 175.49 245.29 184.68 244.87 193.20 241.82 C 196.74 240.71 200.52 239.76 203.32 237.16 C 206.95 233.67 211.30 231.19 215.61 228.68 C 218.17 225.13 219.64 220.85 221.73 217.00 C 223.54 213.58 225.68 210.32 226.97 206.66 L 227.39 206.74 C 227.92 206.85 228.97 207.06 229.50 207.16 C 229.46 210.05 229.35 213.00 230.16 215.81 C 230.17 215.36 230.21 214.48 230.23 214.04 C 235.55 210.58 240.61 206.73 245.58 202.78 C 248.22 200.76 251.42 199.73 254.27 198.08 Z" />
</g>
<g id="#505f4f49">
<path fill="#505f4f" opacity="0.29" d=" M 228.67 203.81 C 229.66 203.74 230.65 203.67 231.64 203.61 C 231.28 203.86 230.55 204.36 230.18 204.61 C 230.05 207.75 230.12 210.90 230.23 214.04 C 230.21 214.48 230.17 215.36 230.16 215.81 C 229.35 213.00 229.46 210.05 229.50 207.16 C 228.97 207.06 227.92 206.85 227.39 206.74 C 227.69 205.71 228.25 204.78 228.67 203.81 Z" />
<path fill="#505f4f" opacity="0.29" d=" M 199.79 239.19 C 200.96 238.51 202.13 237.83 203.32 237.16 C 200.52 239.76 196.74 240.71 193.20 241.82 C 184.68 244.87 175.49 245.29 166.53 245.52 C 172.53 243.77 178.86 244.20 185.02 243.67 C 190.05 242.56 194.82 240.54 199.79 239.19 Z" />
<path fill="#505f4f" opacity="0.29" d=" M 112.08 297.43 C 112.67 296.86 113.21 293.08 113.89 295.40 L 114.45 296.50 C 116.46 296.70 119.37 296.04 119.31 298.94 C 117.32 297.02 114.56 297.51 112.08 297.43 Z" />
<path fill="#505f4f" opacity="0.29" d=" M 130.37 335.90 C 131.32 337.10 132.25 338.39 132.46 339.95 C 134.03 349.00 136.55 357.83 138.28 366.85 C 140.45 365.54 142.82 366.48 144.75 367.63 C 144.16 367.67 142.99 367.75 142.41 367.79 C 142.18 368.48 141.73 369.84 141.50 370.52 C 140.03 371.38 138.24 371.76 136.98 372.94 C 135.21 374.44 135.70 376.94 135.19 378.98 C 134.92 376.52 134.67 373.89 136.48 371.93 L 135.27 371.85 C 135.64 371.57 136.38 371.01 136.75 370.73 C 136.96 370.46 137.39 369.92 137.61 369.65 C 138.41 369.85 139.22 369.99 140.05 370.06 C 141.75 369.52 140.69 367.48 140.35 366.34 L 138.98 368.23 L 137.98 367.93 C 136.07 358.65 133.70 349.44 131.84 340.14 C 131.49 338.68 130.91 337.29 130.37 335.90 Z" />
</g>
<g id="#e6e7e9ff">
<path fill="#e6e7e9" opacity="1.00" d=" M 207.45 258.52 C 213.98 254.17 222.58 254.36 229.83 256.57 C 240.92 261.03 249.94 269.76 256.20 279.80 C 263.18 290.37 261.30 304.52 269.25 314.62 C 273.03 319.84 281.16 321.38 286.31 317.35 C 291.01 313.80 293.53 308.28 295.88 303.06 C 298.10 303.18 300.53 303.75 301.17 306.22 C 302.54 312.39 300.35 319.05 303.02 325.00 C 304.77 328.92 306.44 332.88 308.42 336.69 C 309.49 331.19 305.94 326.51 304.99 321.31 C 303.99 315.40 305.12 309.37 304.49 303.44 C 303.84 300.43 300.57 299.15 298.22 297.71 C 299.03 294.67 299.90 291.65 300.96 288.69 C 305.01 276.89 313.75 266.55 325.12 261.26 C 334.48 256.76 346.07 257.51 354.82 263.08 C 364.87 269.34 372.03 279.34 377.07 289.89 C 380.48 297.42 383.63 305.62 382.33 314.03 C 380.65 324.75 376.06 335.02 376.31 346.02 C 376.13 353.13 380.27 359.24 383.62 365.18 C 387.96 372.89 393.60 380.11 395.70 388.86 C 397.39 395.40 399.97 401.66 402.19 408.03 C 403.23 402.35 403.90 396.62 404.88 390.93 C 408.27 389.17 411.40 386.97 414.26 384.43 C 411.66 384.46 409.06 384.59 406.47 384.68 C 406.50 384.24 406.55 383.36 406.58 382.92 C 408.39 382.37 410.17 381.71 411.88 380.85 C 410.89 380.68 408.92 380.34 407.94 380.17 C 408.50 378.77 408.49 376.86 410.09 376.18 C 413.45 374.20 417.04 372.63 420.35 370.55 L 420.56 372.58 C 421.34 372.10 422.12 371.63 422.91 371.16 C 422.47 372.88 420.51 375.16 423.45 375.69 C 423.40 376.76 423.35 377.84 423.31 378.93 L 424.55 379.90 C 424.83 390.24 424.60 400.61 424.64 410.97 C 422.11 412.42 423.86 415.89 423.40 418.22 C 422.97 418.51 422.11 419.09 421.69 419.37 C 421.28 421.19 422.85 424.11 420.47 425.06 C 420.16 427.12 421.37 430.13 418.77 431.02 C 418.79 431.79 418.84 433.33 418.86 434.10 C 417.21 434.94 417.48 436.74 417.41 438.30 C 415.90 439.59 416.14 441.53 416.13 443.32 C 415.71 443.39 414.87 443.54 414.45 443.61 C 414.50 444.75 414.55 445.91 414.60 447.07 C 413.81 447.96 413.21 448.97 412.78 450.10 C 411.79 451.02 411.54 452.27 411.45 453.57 L 410.23 453.74 C 410.24 454.30 410.28 455.41 410.30 455.97 C 407.40 458.67 404.65 461.81 400.57 462.65 C 399.87 460.56 397.69 461.37 396.15 461.07 C 395.68 461.51 394.74 462.38 394.28 462.81 C 394.35 466.36 394.32 469.91 394.34 473.46 C 393.91 473.77 393.06 474.39 392.63 474.70 C 392.71 478.17 392.68 481.63 392.69 485.10 C 389.17 487.33 393.73 493.24 389.75 495.05 C 389.74 497.06 389.75 499.08 389.78 501.11 C 387.95 501.95 388.52 503.97 388.46 505.59 C 387.45 506.40 386.46 507.21 385.45 508.01 C 385.47 508.49 385.51 509.46 385.53 509.95 C 384.01 511.08 382.23 512.19 382.43 514.35 C 379.22 517.51 376.04 520.71 372.83 523.87 C 368.53 528.24 364.21 532.59 359.86 536.91 C 353.30 543.46 346.79 550.03 340.21 556.55 C 339.21 557.36 338.96 558.68 338.44 559.79 C 335.74 562.37 333.09 565.01 330.49 567.69 C 330.65 569.84 328.78 570.92 327.35 572.11 C 327.35 572.40 327.37 573.00 327.38 573.29 C 327.07 573.29 326.45 573.27 326.14 573.27 C 325.75 574.97 324.83 576.49 324.27 578.14 C 323.24 579.61 322.60 581.32 321.53 582.76 C 321.54 583.39 321.56 584.65 321.57 585.28 C 319.81 586.51 320.18 588.55 320.24 590.41 C 319.81 590.45 318.94 590.55 318.50 590.59 C 318.56 591.77 318.62 592.96 318.69 594.15 C 316.69 595.12 317.44 597.47 317.24 599.25 C 316.91 599.28 316.25 599.36 315.92 599.39 C 315.75 600.64 315.35 601.81 314.71 602.90 C 314.28 604.58 313.03 605.77 311.77 606.89 C 311.20 607.48 310.64 608.09 310.10 608.72 C 309.63 610.05 308.91 611.28 308.23 612.51 C 307.67 612.48 306.55 612.42 305.99 612.39 C 304.79 613.77 303.57 615.14 302.32 616.49 C 300.20 616.34 299.04 618.10 297.84 619.53 C 296.09 619.69 293.88 619.17 293.17 621.29 C 291.73 621.28 290.29 621.27 288.87 621.28 C 287.44 623.15 285.00 622.48 282.98 622.61 C 279.07 622.51 275.14 622.79 271.24 622.47 C 270.92 622.19 270.28 621.61 269.96 621.32 C 268.43 621.29 266.91 621.27 265.39 621.19 C 264.08 620.01 262.51 619.21 261.03 618.30 C 260.45 618.32 259.29 618.36 258.71 618.37 C 258.75 618.01 258.83 617.29 258.87 616.93 C 255.90 617.07 254.48 614.23 252.62 612.46 C 252.02 612.46 250.82 612.45 250.22 612.44 C 250.24 611.85 250.27 610.65 250.28 610.06 C 248.75 608.70 247.26 607.29 245.72 605.95 C 245.72 605.48 245.72 604.55 245.72 604.09 C 243.64 602.77 242.79 600.44 241.57 598.43 C 241.50 596.87 241.56 595.24 240.28 594.13 C 239.76 593.07 239.17 592.05 238.51 591.08 C 238.51 589.68 238.52 588.28 238.53 586.89 C 236.87 585.98 237.27 584.06 237.16 582.51 C 236.83 582.20 236.18 581.58 235.85 581.27 C 235.30 579.71 234.60 578.22 234.02 576.69 C 232.72 575.34 231.09 574.12 231.06 572.07 C 229.59 570.76 227.94 569.46 228.16 567.24 C 227.81 567.25 227.12 567.28 226.77 567.30 C 226.76 567.00 226.74 566.41 226.73 566.12 C 224.29 564.00 222.00 561.72 219.76 559.40 C 219.77 558.18 219.32 557.21 218.41 556.46 C 204.44 542.56 190.59 528.52 176.57 514.67 C 176.14 512.03 173.21 510.84 172.99 508.18 C 172.16 507.30 171.29 506.47 170.51 505.56 C 170.16 503.91 170.65 501.80 168.68 501.10 C 168.66 499.06 168.67 497.04 168.68 495.01 C 165.18 492.83 169.67 486.96 165.78 485.10 C 165.69 481.10 165.74 477.11 165.77 473.12 C 165.47 472.85 164.87 472.30 164.57 472.02 C 164.20 468.95 164.50 465.83 164.49 462.75 C 162.62 461.04 159.73 459.82 158.05 462.46 C 157.70 462.47 156.99 462.48 156.64 462.49 C 155.25 461.53 153.74 460.77 152.32 459.86 C 151.08 458.53 149.78 457.27 148.43 456.06 C 148.40 455.63 148.35 454.77 148.33 454.33 C 147.25 453.07 146.63 451.51 145.85 450.07 C 145.44 448.96 144.82 447.96 144.18 446.98 C 144.19 446.25 144.20 444.77 144.21 444.04 C 141.96 443.67 142.63 441.49 142.51 439.89 C 140.95 438.82 141.32 436.87 141.13 435.26 C 139.10 434.63 139.69 432.56 139.57 430.98 C 136.73 429.52 140.00 425.12 136.76 424.02 C 136.42 422.03 137.50 419.30 135.37 418.06 C 135.37 415.56 135.39 413.07 135.47 410.58 C 135.04 410.27 134.17 409.64 133.74 409.33 C 133.82 399.56 133.64 389.78 133.79 380.01 C 134.14 379.75 134.84 379.24 135.19 378.98 C 135.70 376.94 135.21 374.44 136.98 372.94 C 138.24 371.76 140.03 371.38 141.50 370.52 C 141.73 369.84 142.18 368.48 142.41 367.79 C 142.99 367.75 144.16 367.67 144.75 367.63 C 147.68 369.13 149.83 371.66 151.94 374.10 C 148.68 376.25 145.16 377.95 141.50 379.30 C 145.46 379.65 149.44 379.79 153.42 379.97 C 153.87 383.30 154.33 386.63 154.67 389.97 C 148.96 394.80 143.96 400.73 141.52 407.90 C 145.27 402.40 149.20 396.91 154.60 392.90 C 155.82 398.39 155.20 404.03 155.81 409.58 C 160.40 402.33 162.01 393.75 164.67 385.71 C 169.07 373.96 175.30 362.96 179.23 351.04 C 181.89 343.89 179.55 336.32 178.55 329.10 C 177.23 320.28 174.49 311.04 177.32 302.23 C 180.05 293.38 184.33 285.07 189.42 277.36 C 194.36 270.18 199.92 263.14 207.45 258.52 M 197.07 485.01 C 206.37 495.96 215.94 506.81 227.14 515.89 C 231.22 519.22 235.98 521.60 240.05 524.96 C 247.45 530.64 256.98 532.11 266.03 532.78 C 274.62 533.89 283.35 534.04 291.95 532.90 C 299.43 532.23 307.21 531.64 313.99 528.10 C 318.51 526.13 322.02 522.57 326.22 520.10 C 335.85 514.00 343.63 505.55 351.51 497.44 C 358.12 489.48 365.60 482.15 370.99 473.26 C 358.38 485.61 345.74 498.08 331.55 508.65 C 327.45 511.41 323.17 514.79 317.98 514.77 C 309.45 515.00 301.38 511.72 293.00 510.74 C 288.21 510.50 283.80 513.17 279.01 512.93 C 274.90 512.73 271.08 510.81 266.97 510.71 C 257.25 511.54 247.80 516.19 237.93 514.34 C 232.80 512.52 228.37 509.21 224.10 505.92 C 211.46 495.72 199.67 484.53 188.01 473.24 C 190.95 477.22 193.62 481.42 197.07 485.01 Z" />
</g>
<g id="#be1e2eff">
<path fill="#be1e2e" opacity="1.00" d=" M 197.07 485.01 C 193.62 481.42 190.95 477.22 188.01 473.24 C 199.67 484.53 211.46 495.72 224.10 505.92 C 228.37 509.21 232.80 512.52 237.93 514.34 C 247.80 516.19 257.25 511.54 266.97 510.71 C 271.08 510.81 274.90 512.73 279.01 512.93 C 283.80 513.17 288.21 510.50 293.00 510.74 C 301.38 511.72 309.45 515.00 317.98 514.77 C 323.17 514.79 327.45 511.41 331.55 508.65 C 345.74 498.08 358.38 485.61 370.99 473.26 C 365.60 482.15 358.12 489.48 351.51 497.44 C 343.63 505.55 335.85 514.00 326.22 520.10 C 322.02 522.57 318.51 526.13 313.99 528.10 C 307.21 531.64 299.43 532.23 291.95 532.90 C 283.35 534.04 274.62 533.89 266.03 532.78 C 256.98 532.11 247.45 530.64 240.05 524.96 C 235.98 521.60 231.22 519.22 227.14 515.89 C 215.94 506.81 206.37 495.96 197.07 485.01 Z" />
</g>
</svg>
